<svg width="69" height="69" viewBox="0 0 69 69" fill="none" xmlns="http://www.w3.org/2000/svg">
<rect width="68.8057" height="68.6829" rx="34.3415" fill="#F0AFFF"/>
<path d="M28.2184 30.9331C26.9132 33.8996 24.6674 33.4748 22.6018 33.9685C21.6672 34.1926 21.0666 34.9866 21.0753 35.9169C21.0841 36.9496 21.5207 37.8726 22.2444 38.6168C24.7011 41.1409 27.817 40.218 30.8597 39.758C36.4017 38.9185 38.0102 42.6952 37.5912 43.265C37.5048 43.3837 37.1781 43.4877 37.0389 43.4438C36.5423 43.2885 36.6961 41.5833 34.2262 40.8318C30.5126 39.7038 25.5552 43.3178 21.6203 39.3448C20.8102 38.5274 20.2711 37.4946 20.1246 36.3534C19.9122 34.6951 20.964 33.2785 22.5989 33.0016L24.7509 32.6383C25.9566 32.4347 26.8678 31.689 27.3497 30.5346C28.2111 28.472 28.5173 26.2614 28.5495 23.9907C28.5525 23.7973 28.7282 23.5292 28.8733 23.4853C29.0183 23.4414 29.3421 23.5322 29.4329 23.6772L31.749 27.3967C32.6792 26.8195 33.5098 26.2145 34.235 25.4088L35.9168 23.5395C36.031 23.4121 36.3343 23.3403 36.4602 23.371C36.6067 23.4062 36.7899 23.6816 36.7855 23.897L36.5481 37.0874C36.5335 37.9194 36.9994 38.4439 37.7582 38.6197C40.1446 39.172 42.6379 38.9288 44.8529 37.9063C45.7261 37.4726 46.1509 36.6493 45.918 35.6707L44.3973 29.3041C42.843 31.2451 40.5182 32.1563 38.12 31.6876C37.8725 31.6392 37.7728 31.2627 37.8549 31.0591C37.9369 30.8555 38.2197 30.728 38.5009 30.7778C40.8961 31.1939 43.1726 29.8827 44.1922 27.6985C44.2465 27.5828 44.535 27.4861 44.6552 27.5051C44.7973 27.5271 45.0287 27.7454 45.0712 27.9256L46.8526 35.4085C47.1954 36.8515 46.5464 38.1597 45.1767 38.8057C42.7537 39.9513 39.941 40.1667 37.3187 39.4957C36.3138 39.2379 35.5798 38.3384 35.5974 37.2617L35.7864 25.1934C35.0568 25.9845 32.1885 28.9071 31.2524 28.431L29.4812 25.6124C29.2234 27.53 28.9538 29.2616 28.2184 30.9331Z" fill="#440206"/>
<path d="M24.9735 38.6959C23.806 38.8248 22.7585 38.0469 22.4553 36.9819C22.2004 36.0883 22.7468 35.2459 23.6785 35.1727C24.8227 35.0833 25.9009 35.8671 26.1616 36.9877C26.3491 37.7979 25.8716 38.5963 24.975 38.6944L24.9735 38.6959Z" fill="#440206"/>
<path d="M42.3801 36.3622C42.1736 36.7607 41.822 37.1811 41.4015 37.2573C41.1085 37.3115 40.0084 36.8383 40.171 36.3373C40.3189 35.8817 42.7947 35.5653 42.3816 36.3622H42.3801Z" fill="#440206"/>
<path d="M31.1879 33.0353C31.5058 32.8683 31.8925 33.025 31.9892 33.2712C32.102 33.5598 32.0332 33.9597 31.7446 34.1047C31.5029 34.2263 31.1293 34.1457 30.9725 33.8908C30.8348 33.6667 30.8553 33.2111 31.1879 33.0368V33.0353Z" fill="#440206"/>
<path d="M29.0052 32.7071C29.3201 32.5387 29.7084 32.6954 29.808 32.943C29.9208 33.2213 29.8446 33.6271 29.5619 33.7707C29.3216 33.8923 28.9568 33.8132 28.7928 33.5583C28.6536 33.3415 28.68 32.8829 29.0052 32.7071Z" fill="#440206"/>
<path d="M41.7781 33.3576C42.0696 33.2287 42.4153 33.3913 42.4812 33.6008C42.5647 33.863 42.4739 34.238 42.241 34.3391C42.0081 34.4402 41.6638 34.3347 41.5525 34.1384C41.425 33.9143 41.469 33.4924 41.7781 33.3561V33.3576Z" fill="#440206"/>
<path d="M39.0224 33.6828C39.3725 33.4762 39.7021 33.6081 39.8178 33.8791C39.9014 34.0739 39.8354 34.4651 39.5864 34.6057C39.4135 34.7039 39.0517 34.6336 38.9198 34.4563C38.7792 34.2688 38.81 33.8088 39.0224 33.6828Z" fill="#440206"/>
<path d="M10.9994 22.9096L7.48938 20.8616L8.91185 18.4239C9.804 16.8945 10.5877 16.6879 11.4491 17.1904C12.334 17.7061 12.5405 18.4913 11.6484 20.0207L11.2616 20.6843L12.0366 21.1355L11.0009 22.9096H10.9994ZM10.116 20.0163L10.4618 19.4245C10.5819 19.2179 10.5526 19.1036 10.4325 19.0333C10.3123 18.963 10.1981 18.9938 10.0779 19.2003L9.73222 19.7922L10.1175 20.0163H10.116Z" fill="#440206"/>
<path d="M14.5827 17.2563L11.7012 14.3909L14.9358 11.1387L15.8397 12.0382L14.0378 13.8503L14.2663 14.0774L15.6521 12.6842L16.2557 13.2849L14.8699 14.678L15.1028 14.9095L16.9281 13.0739L17.8393 13.9807L14.5813 17.2563H14.5827Z" fill="#440206"/>
<path d="M20.3429 12.2272L19.1035 10.1528L17.8173 10.9204L16.972 9.50528L21.3977 6.86105L22.2429 8.27619L20.967 9.03796L22.2063 11.1123L20.3429 12.2257V12.2272Z" fill="#440206"/>
<path d="M27.8171 6.77169L27.7878 6.5622C27.6311 5.421 28.3884 4.42337 30.3354 4.15675C32.2383 3.89599 33.1437 4.52592 33.4147 5.71839L31.2143 6.02017C31.1396 5.84437 30.958 5.70081 30.5492 5.75794C30.1141 5.818 29.9384 6.05533 29.9779 6.34685L29.9838 6.3908C30.0233 6.68232 30.2563 6.86398 30.6928 6.80538C31.1015 6.74971 31.2378 6.5622 31.2627 6.37322L33.463 6.07144C33.5231 7.29321 32.8199 8.14288 30.9169 8.40364C28.97 8.67026 27.9739 7.91288 27.8171 6.77169Z" fill="#440206"/>
<path d="M35.3367 8.05205L35.6604 4L37.83 4.17286L37.5063 8.22345L35.3367 8.05059V8.05205Z" fill="#440206"/>
<path d="M39.2598 8.38753L40.4259 4.49516L43.4173 5.3917C43.7909 5.50304 44.097 5.62463 44.3387 5.74915C44.5863 5.87514 44.768 6.0231 44.894 6.18278C45.0199 6.34246 45.0932 6.52704 45.1093 6.72334C45.1298 6.92697 45.0961 7.1555 45.0185 7.41626C44.935 7.69314 44.831 7.90556 44.6947 8.05059C44.5629 8.19708 44.3886 8.29523 44.1703 8.34651L44.4047 9.92719L42.0271 9.21376L42.0036 8.09161L41.8058 8.03301L41.4997 9.05701L39.2598 8.38606V8.38753ZM41.8703 6.83468L42.5852 7.04856C42.8255 7.12034 42.9295 7.06468 42.9676 6.93723C43.0071 6.80392 42.95 6.70576 42.7097 6.63398L41.9948 6.4201L41.8703 6.83614V6.83468Z" fill="#440206"/>
<path d="M46.7515 8.88561L46.8643 8.70688C47.4811 7.73269 48.7014 7.45874 50.3626 8.50911C51.9858 9.53604 52.2744 10.6011 51.7118 11.6881L49.8352 10.5C49.8909 10.3183 49.844 10.0898 49.4954 9.87005C49.1233 9.63566 48.8361 9.70305 48.6794 9.95355L48.6559 9.99164C48.4977 10.2407 48.5593 10.5293 48.9314 10.7651C49.28 10.9849 49.5056 10.9307 49.6463 10.8018L51.5229 11.9898C50.7816 12.964 49.6961 13.1589 48.0729 12.1319C46.4116 11.0816 46.1377 9.8598 46.753 8.88561H46.7515Z" fill="#440206"/>
<path d="M51.6898 14.6546L54.6476 11.8682L56.1447 13.4562L54.4014 15.0985L55.6994 16.4755L54.4835 17.6211L51.6898 14.6546Z" fill="#440206"/>
<path d="M55.4607 18.9L58.9766 16.8637L61.2751 20.8323L60.172 21.471L58.8916 19.2604L58.6118 19.4215L59.5962 21.1223L58.8594 21.5486L57.8749 19.8478L57.5907 20.0119L58.8872 22.2518L57.7753 22.8964L55.4607 18.8985V18.9Z" fill="#440206"/>
<path d="M5.50147 37.1621L5.71388 37.1152C6.83311 36.8676 7.8864 37.5298 8.30685 39.4327C8.72729 41.3357 8.05048 42.3788 6.93126 42.6263L6.71884 42.6732C5.59962 42.9208 4.54632 42.2572 4.12588 40.3557C3.70544 38.4527 4.38225 37.4096 5.50147 37.1621ZM6.36725 40.6193C6.66024 40.5549 6.82285 40.1769 6.73495 39.7799C6.64559 39.3771 6.33942 39.0973 6.04643 39.1632C5.75344 39.2276 5.59815 39.61 5.68605 40.0114C5.77395 40.4084 6.07426 40.6838 6.36725 40.6193Z" fill="#440206"/>
<path d="M5.99805 46.1671L8.97629 43.1479L10.0164 45.0362L8.58075 46.3986L10.5702 46.0411L11.2543 47.2849L9.89042 48.7674L11.808 48.2898L12.8467 50.1767L8.70381 51.0791L7.61975 49.1087L8.95871 47.7419L7.08504 48.1375L5.99951 46.1671H5.99805Z" fill="#440206"/>
<path d="M10.8529 53.883L13.7008 50.9839L15.2097 52.4664L14.9123 54.4851L16.0667 53.3102L17.4891 54.7063L14.6413 57.6054L13.2159 56.2049L13.4957 54.0383L12.2754 55.2806L10.8544 53.8845L10.8529 53.883Z" fill="#440206"/>
<path d="M16.704 59.1275L18.7696 55.6263L22.7205 57.9585L22.073 59.0572L19.8712 57.7578L19.7071 58.0361L21.3991 59.0352L20.9655 59.7692L19.2735 58.7701L19.1065 59.0528L21.3361 60.3683L20.6828 61.4758L16.7025 59.1275H16.704Z" fill="#440206"/>
<path d="M22.9548 62.5116L24.1356 58.6221L27.1241 59.5289C27.4962 59.6417 27.8038 59.7648 28.0441 59.8893C28.2902 60.0167 28.4718 60.1647 28.5978 60.3244C28.7238 60.4855 28.7956 60.6701 28.8117 60.8664C28.8307 61.07 28.7971 61.2986 28.7179 61.5593C28.633 61.8362 28.529 62.0486 28.3913 62.1937C28.2594 62.3402 28.0851 62.4383 27.8653 62.4881L28.0953 64.0703L25.7192 63.3495L25.7002 62.2259L25.5024 62.1658L25.1918 63.1884L22.9548 62.5086V62.5116ZM25.5712 60.9675L26.2847 61.1843C26.5249 61.2576 26.6289 61.2019 26.667 61.073C26.708 60.9397 26.6494 60.8415 26.4106 60.7683L25.6972 60.5514L25.5712 60.9675Z" fill="#440206"/>
<path d="M31.6375 64.5097C31.0779 64.4189 30.637 64.3281 30.3293 64.2329L30.4041 62.431C30.7762 62.5863 31.1937 62.7254 31.68 62.847C32.1766 62.9686 32.581 63.0301 32.9033 63.0433C33.4819 63.0682 33.8071 63.0199 33.8115 62.9086C33.8203 62.7079 32.9604 62.7445 32.1063 62.6361C31.2581 62.5335 30.3997 62.2801 30.4304 61.53C30.4465 61.1404 30.6927 60.8503 31.1585 60.6467C31.6244 60.4372 32.2968 60.3537 33.1699 60.3903C33.9932 60.424 34.7667 60.5793 35.5006 60.8781L35.4274 62.513C35.171 62.3914 34.8575 62.2713 34.4781 62.1614C34.0928 62.056 33.6943 61.9842 33.2944 61.9666C32.5824 61.9256 32.3231 62.1482 32.7201 62.2274C32.9633 62.2816 33.3911 62.3167 33.8745 62.3533C34.3624 62.3958 34.8722 62.4896 35.2779 62.6346C35.6676 62.784 35.9401 63.0638 35.924 63.4418C35.8874 64.3325 34.8604 64.7515 32.997 64.6738C32.6528 64.6592 32.1972 64.6006 31.639 64.5112L31.6375 64.5097Z" fill="#440206"/>
<path d="M43.823 63.0931C43.7015 62.5775 43.5667 62.1878 43.429 61.8977C43.4934 62.0999 43.5154 62.3372 43.4846 62.6097C43.4173 63.1737 42.9045 63.581 42.3391 63.5136C41.775 63.4462 41.3678 62.932 41.4352 62.368C41.5011 61.8391 41.734 61.5022 41.9801 61.2854C41.923 61.2913 41.8585 61.2883 41.7985 61.2854C41.5743 61.2795 41.3737 61.2326 41.1964 61.136C41.0177 61.0525 40.9034 60.9309 40.8536 60.7712C40.754 60.4577 40.8814 60.1383 41.1686 59.8834C41.4498 59.6256 41.8454 59.419 42.3127 59.2711C42.5617 59.192 42.7888 59.1334 42.9953 59.085C43.2078 59.0352 43.3528 59.0133 43.4363 59.0045L43.5638 59.0001L43.9388 60.1896C43.7322 60.109 43.4231 60.1295 43.0203 60.257C42.8239 60.3185 42.6731 60.3962 42.5705 60.4811C42.465 60.572 42.4255 60.6672 42.4606 60.7785C42.5354 61.0349 42.7492 60.8972 44.2171 60.4225L44.2948 60.6672L43.3499 60.966C45.4403 60.6921 45.4872 62.557 45.4872 62.557L43.823 63.0931ZM43.0554 61.6253C43.032 61.3118 42.8064 61.2429 42.8064 61.2429C42.8064 61.2429 42.5866 61.3411 42.6115 61.6604C42.6203 61.7805 42.7243 61.8699 42.8489 61.8596C42.9704 61.8567 43.0583 61.7468 43.0554 61.6253Z" fill="#440206"/>
<path d="M51.7675 59.2843L48.2457 56.8393L50.0681 55.4842L51.388 56.5419L51.517 56.4452L50.8445 54.9055L52.5966 53.6047L53.7686 57.7959L51.7675 59.2828V59.2843Z" fill="#440206"/>
<path d="M56.508 55.4036L53.4038 52.7799L56.3659 49.2772L57.3401 50.1005L55.6906 52.0518L55.9367 52.2598L57.2054 50.7597L57.8558 51.3091L56.5871 52.8107L56.8377 53.0231L58.5092 51.0454L59.4907 51.876L56.5066 55.4051L56.508 55.4036Z" fill="#440206"/>
<path d="M61.4976 48.5667L59.3398 47.4812L58.6659 48.8187L57.1936 48.0774L59.5112 43.4731L60.9834 44.2143L60.3154 45.5416L62.4733 46.6271L61.4976 48.5667Z" fill="#440206"/>
<path d="M64.2005 41.9744C64.0101 42.5077 63.8402 42.9252 63.6893 43.2108L61.9313 42.8095C62.1511 42.471 62.3649 42.0858 62.5715 41.6316C62.781 41.1658 62.9143 40.779 62.9861 40.4641C63.115 39.9001 63.1267 39.5719 63.0183 39.547C62.8235 39.5031 62.7019 40.3542 62.4411 41.1731C62.1862 41.9891 61.7819 42.7875 61.048 42.619C60.6685 42.5326 60.4268 42.2381 60.3111 41.743C60.1895 41.2478 60.2305 40.571 60.4254 39.7184C60.6085 38.9156 60.9015 38.1831 61.3278 37.5151L62.9216 37.8843C62.7546 38.1143 62.5803 38.4 62.403 38.7545C62.2302 39.1148 62.0866 39.4928 61.9972 39.8839C61.8273 40.5754 62.0002 40.8728 62.1481 40.4948C62.2463 40.2663 62.3576 39.8517 62.4821 39.3829C62.6125 38.9098 62.7971 38.4278 63.0139 38.0542C63.2322 37.6982 63.5559 37.4814 63.9251 37.5664C64.7938 37.7642 65.0194 38.8497 64.6034 40.6677C64.5257 41.0046 64.3866 41.4412 64.1961 41.9744H64.2005Z" fill="#440206"/>
<path d="M61.9255 29.9648C62.2232 29.9648 62.4646 29.7234 62.4646 29.4257C62.4646 29.1279 62.2232 28.8866 61.9255 28.8866C61.6277 28.8866 61.3864 29.1279 61.3864 29.4257C61.3864 29.7234 61.6277 29.9648 61.9255 29.9648Z" fill="#440206"/>
<path d="M6.02873 29.4242C6.32646 29.4242 6.56783 29.1828 6.56783 28.8851C6.56783 28.5874 6.32646 28.346 6.02873 28.346C5.73099 28.346 5.48962 28.5874 5.48962 28.8851C5.48962 29.1828 5.73099 29.4242 6.02873 29.4242Z" fill="#440206"/>
</svg>
