<svg width="24" height="24" viewBox="0 0 24 24" fill="none" xmlns="http://www.w3.org/2000/svg">
<path d="M20.6636 12.3318H18.5973C18.2332 12.331 17.8788 12.4495 17.5884 12.6692C17.298 12.8889 17.0876 13.1976 16.9892 13.5482L15.0313 20.5136C15.0187 20.5569 14.9923 20.5949 14.9563 20.6219C14.9202 20.6489 14.8764 20.6636 14.8313 20.6636C14.7862 20.6636 14.7424 20.6489 14.7063 20.6219C14.6703 20.5949 14.644 20.5569 14.6314 20.5136L10.0322 4.14997C10.0196 4.10671 9.99328 4.0687 9.95722 4.04166C9.92117 4.01462 9.87732 4 9.83225 4C9.78718 4 9.74333 4.01462 9.70727 4.04166C9.67122 4.0687 9.6449 4.10671 9.63228 4.14997L7.67432 11.1153C7.57639 11.4646 7.36719 11.7723 7.07848 11.9919C6.78977 12.2114 6.43731 12.3307 6.07461 12.3318H4" stroke="currentColor" stroke-width="1.5" stroke-linecap="round" stroke-linejoin="round"/>
</svg>
