<svg width="24" height="24" viewBox="0 0 24 24" fill="none" xmlns="http://www.w3.org/2000/svg">
<path d="M15 20.9995V12.9997C15 12.7345 14.8946 12.4802 14.7071 12.2926C14.5196 12.1051 14.2652 11.9997 14 11.9997H10C9.73478 11.9997 9.48043 12.1051 9.29289 12.2926C9.10536 12.4802 9 12.7345 9 12.9997V20.9995M3 10.0003C2.99993 9.70935 3.06333 9.42192 3.18579 9.15802C3.30824 8.89412 3.4868 8.66011 3.709 8.47232L10.709 2.47247C11.07 2.16738 11.5274 2 12 2C12.4726 2 12.93 2.16738 13.291 2.47247L20.291 8.47232C20.5132 8.66011 20.6918 8.89412 20.8142 9.15802C20.9367 9.42192 21.0001 9.70935 21 10.0003V19.0001C21 19.5305 20.7893 20.0392 20.4142 20.4142C20.0391 20.7893 19.5304 21 19 21H5C4.46957 21 3.96086 20.7893 3.58579 20.4142C3.21071 20.0392 3 19.5305 3 19.0001V10.0003Z" stroke="currentColor" stroke-width="1.5" stroke-linecap="round" stroke-linejoin="round"/>
</svg>
