<svg width="24" height="24" viewBox="0 0 24 24" fill="none" xmlns="http://www.w3.org/2000/svg">
<path d="M19.612 6.37332C19.1722 5.9175 18.65 5.55592 18.0752 5.30922C17.5005 5.06252 16.8844 4.93555 16.2623 4.93555C15.6401 4.93555 15.0241 5.06252 14.4493 5.30922C13.8746 5.55592 13.3524 5.9175 12.9126 6.37332L12.3467 6.95949C12.1551 7.15796 11.8444 7.15796 11.6529 6.95949L11.087 6.37332C10.1986 5.45304 8.99364 4.93602 7.73725 4.93602C6.48085 4.93602 5.27591 5.45304 4.38751 6.37332C3.4991 7.29361 3 8.54178 3 9.84326C3 11.1447 3.4991 12.3929 4.38751 13.3132L9.91826 19.0424C11.0678 20.2333 12.9317 20.2333 14.0813 19.0424L19.612 13.3132C20.0521 12.8576 20.4011 12.3167 20.6393 11.7213C20.8774 11.1259 21 10.4877 21 9.84326C21 9.19879 20.8774 8.56064 20.6393 7.96525C20.4011 7.36987 20.0521 6.82892 19.612 6.37332Z" stroke="currentColor" stroke-width="1.5" stroke-linecap="round" stroke-linejoin="round"/>
</svg>
