<svg preserveAspectRatio="none" width="100%" height="100%" overflow="visible" style="display: block;" viewBox="0 0 30.5 31" fill="none" xmlns="http://www.w3.org/2000/svg">
<g id="Home">
<path id="Rectangle 74" d="M1 14.1576C1 12.3213 1.84087 10.5862 3.28213 9.44831L11.5321 2.93516C13.712 1.21422 16.788 1.21422 18.9679 2.93516L27.2179 9.44831C28.6591 10.5862 29.5 12.3213 29.5 14.1576V24C29.5 27.3137 26.8137 30 23.5 30H21.25C20.4216 30 19.75 29.3284 19.75 28.5V24C19.75 22.3431 18.4069 21 16.75 21H13.75C12.0931 21 10.75 22.3431 10.75 24V28.5C10.75 29.3284 10.0784 30 9.25 30H7C3.68629 30 1 27.3137 1 24L1 14.1576Z" stroke="#440206" stroke-width="2"/>
</g>
</svg>
