<svg width="24" height="24" viewBox="0 0 24 24" fill="none" xmlns="http://www.w3.org/2000/svg">
<path d="M8.84538 8.84538L15.1546 15.1546M10.648 19.6612L19.6612 10.648C20.0824 10.2353 20.4175 9.74314 20.6473 9.20007C20.8771 8.65699 20.997 8.07375 20.9999 7.48407C21.0029 6.89439 20.889 6.30996 20.6647 5.76459C20.4404 5.21922 20.1102 4.72373 19.6932 4.30675C19.2763 3.88978 18.7808 3.5596 18.2354 3.33532C17.69 3.11103 17.1056 2.99708 16.5159 3.00006C15.9263 3.00304 15.343 3.12288 14.7999 3.35267C14.2569 3.58245 13.7647 3.91762 13.352 4.33878L4.33878 13.352C3.91762 13.7647 3.58245 14.2569 3.35267 14.7999C3.12288 15.343 3.00304 15.9263 3.00006 16.5159C2.99708 17.1056 3.11103 17.69 3.33532 18.2354C3.5596 18.7808 3.88978 19.2763 4.30675 19.6932C4.72373 20.1102 5.21922 20.4404 5.76459 20.6647C6.30996 20.889 6.89439 21.0029 7.48407 20.9999C8.07375 20.997 8.65699 20.8771 9.20007 20.6473C9.74314 20.4175 10.2353 20.0824 10.648 19.6612Z" stroke="currentColor" stroke-width="1.5" stroke-linecap="round" stroke-linejoin="round"/>
</svg>
