<svg preserveAspectRatio="none" width="100%" height="100%" overflow="visible" style="display: block;" viewBox="0 0 31.8867 30.2765" fill="none" xmlns="http://www.w3.org/2000/svg">
<g id="message square">
<path id="Union" d="M30.8867 8.47168H31.8867V8.47167L30.8867 8.47168ZM3.42773 28.9443L2.80304 28.1635V28.1635L3.42773 28.9443ZM1 8.47168L0 8.47167V8.47168H1ZM7.65304 25.5641L7.02834 24.7832L7.65304 25.5641ZM23.415 1V2C26.9893 2 29.8867 4.89746 29.8867 8.47168L30.8867 8.47168L31.8867 8.47167C31.8867 3.7929 28.0938 0 23.415 0V1ZM30.8867 8.47168H29.8867V17.4375H30.8867H31.8867V8.47168H30.8867ZM30.8867 17.4375H29.8867C29.8867 21.0117 26.9893 23.9092 23.415 23.9092V24.9092V25.9092C28.0938 25.9092 31.8867 22.1163 31.8867 17.4375H30.8867ZM23.415 24.9092V23.9092H9.52005V24.9092V25.9092H23.415V24.9092ZM7.65304 25.5641L7.02834 24.7832L2.80304 28.1635L3.42773 28.9443L4.05243 29.7252L8.27773 26.345L7.65304 25.5641ZM3.42773 28.9443L2.80304 28.1635C2.47952 28.4223 2 28.1921 2 27.7773H1H0C0 29.8687 2.41906 31.0319 4.05243 29.7252L3.42773 28.9443ZM1 27.7773H2V8.47168H1H0V27.7773H1ZM1 8.47168L2 8.47169C2.00002 4.89746 4.89747 2 8.47168 2V1V0C3.79289 0 2.85506e-05 3.7929 0 8.47167L1 8.47168ZM8.47168 1V2H23.415V1V0H8.47168V1ZM9.52005 24.9092V23.9092C8.61434 23.9092 7.73559 24.2174 7.02834 24.7832L7.65304 25.5641L8.27773 26.345C8.63035 26.0629 9.06848 25.9092 9.52005 25.9092V24.9092Z" fill="var(--stroke-0, #440206)"/>
<g id="Dots">
<circle id="Ellipse 37" cx="8.54606" cy="13.0292" r="1.86793" fill="var(--fill-0, #440206)"/>
<circle id="Ellipse 38" cx="16.0177" cy="13.0292" r="1.86793" fill="var(--fill-0, #440206)"/>
<circle id="Ellipse 39" cx="23.4894" cy="13.0292" r="1.86793" fill="var(--fill-0, #440206)"/>
</g>
</g>
</svg>
