<svg width="24" height="24" viewBox="0 0 24 24" fill="none" xmlns="http://www.w3.org/2000/svg">
<path d="M11 18.75V4.75C11 4.33579 11.3358 4 11.75 4C12.1642 4 12.5 4.33579 12.5 4.75V18.75C12.5 19.1642 12.1642 19.5 11.75 19.5C11.3358 19.5 11 19.1642 11 18.75Z" fill="currentColor"/>
<path d="M21 4.75C21 4.68369 20.9736 4.62013 20.9268 4.57324C20.8799 4.52636 20.8163 4.5 20.75 4.5H15.75C14.888 4.5 14.0616 4.84266 13.4521 5.45215C12.8427 6.06164 12.5 6.88805 12.5 7.75H11C11 6.88805 10.6573 6.06164 10.0479 5.45215C9.43836 4.84266 8.61195 4.5 7.75 4.5H2.75C2.6837 4.5 2.62013 4.52636 2.57324 4.57324C2.52636 4.62013 2.5 4.6837 2.5 4.75V17.75C2.5 17.8163 2.52636 17.8799 2.57324 17.9268C2.62013 17.9736 2.68369 18 2.75 18H8.75C9.74456 18 10.6981 18.3954 11.4014 19.0986C11.5276 19.2248 11.6441 19.3589 11.75 19.5C11.8559 19.3589 11.9724 19.2248 12.0986 19.0986C12.8019 18.3954 13.7554 18 14.75 18H20.75C20.8163 18 20.8799 17.9736 20.9268 17.9268C20.9736 17.8799 21 17.8163 21 17.75V4.75ZM22.5 17.75C22.5 18.2141 22.3155 18.6591 21.9873 18.9873C21.6591 19.3155 21.2141 19.5 20.75 19.5H14.75C14.1533 19.5 13.5811 19.7372 13.1592 20.1592C12.7372 20.5811 12.5 21.1533 12.5 21.75H11C11 21.1533 10.7628 20.5811 10.3408 20.1592C9.91886 19.7372 9.34674 19.5 8.75 19.5H2.75C2.28587 19.5 1.84089 19.3155 1.5127 18.9873C1.18451 18.6591 1 18.2141 1 17.75V4.75C1 4.28587 1.18451 3.84088 1.5127 3.5127C1.84088 3.18451 2.28587 3 2.75 3H7.75C9.00978 3 10.2176 3.5008 11.1084 4.3916C11.3524 4.63557 11.5669 4.90334 11.75 5.18945C11.9331 4.90334 12.1476 4.63557 12.3916 4.3916C13.2824 3.5008 14.4902 3 15.75 3H20.75C21.2141 3 21.6591 3.18451 21.9873 3.5127C22.3155 3.84089 22.5 4.28587 22.5 4.75V17.75Z" fill="currentColor"/>
</svg>
