<svg preserveAspectRatio="none" width="100%" height="100%" overflow="visible" style="display: block;" viewBox="0 0 24 24" fill="none" xmlns="http://www.w3.org/2000/svg">
<g id="graph">
<path id="Vector" d="M20.6637 12.3318H18.5974C18.2333 12.331 17.8789 12.4495 17.5885 12.6692C17.2981 12.8889 17.0877 13.1976 16.9893 13.5482L15.0314 20.5136C15.0188 20.5569 14.9924 20.5949 14.9564 20.6219C14.9203 20.6489 14.8765 20.6636 14.8314 20.6636C14.7863 20.6636 14.7425 20.6489 14.7064 20.6219C14.6704 20.5949 14.6441 20.5569 14.6315 20.5136L10.0323 4.14997C10.0197 4.10671 9.99338 4.0687 9.95732 4.04166C9.92127 4.01462 9.87741 4 9.83234 4C9.78728 4 9.74342 4.01462 9.70737 4.04166C9.67131 4.0687 9.645 4.10671 9.63238 4.14997L7.67441 11.1153C7.57648 11.4646 7.36729 11.7723 7.07858 11.9919C6.78987 12.2114 6.43741 12.3307 6.07471 12.3318H4.0001" stroke="#9A9A9A" stroke-width="1.5" stroke-linecap="round"/>
</g>
</svg>
