<svg preserveAspectRatio="none" width="100%" height="100%" overflow="visible" style="display: block;" viewBox="0 0 15.9967 15.9967" fill="none" xmlns="http://www.w3.org/2000/svg">
<path id="Vector" d="M7.99837 0C6.41645 0 4.87004 0.469096 3.55472 1.34797C2.23939 2.22684 1.21422 3.47602 0.608843 4.93753C0.00346558 6.39904 -0.154929 8.00724 0.15369 9.55878C0.462309 11.1103 1.22408 12.5355 2.34267 13.6541C3.46126 14.7727 4.88644 15.5344 6.43797 15.8431C7.9895 16.1517 9.59771 15.9933 11.0592 15.3879C12.5207 14.7825 13.7699 13.7574 14.6488 12.442C15.5276 11.1267 15.9967 9.5803 15.9967 7.99837C15.9945 5.87778 15.151 3.84469 13.6515 2.3452C12.1521 0.845713 10.119 0.00229359 7.99837 0V0ZM13.7619 4.66572H11.615C11.1344 3.55193 10.5016 2.51021 9.73469 1.57035C11.432 2.0322 12.8789 3.14434 13.7619 4.66572V4.66572ZM10.9978 7.99837C10.9923 8.67699 10.8854 9.35098 10.6805 9.99796H5.31625C5.1114 9.35098 5.00446 8.67699 4.99899 7.99837C5.00446 7.31975 5.1114 6.64576 5.31625 5.99878H10.6805C10.8854 6.64576 10.9923 7.31975 10.9978 7.99837V7.99837ZM5.85081 11.331H10.1459C9.58021 12.448 8.85697 13.4778 7.99837 14.3891C7.13946 13.4781 6.41619 12.4482 5.85081 11.331V11.331ZM5.85081 4.66572C6.41654 3.54879 7.13978 2.51893 7.99837 1.60767C8.85729 2.51867 9.58056 3.54858 10.1459 4.66572H5.85081ZM6.26539 1.57035C5.49732 2.51001 4.8634 3.55174 4.38178 4.66572H2.23488C3.1186 3.14365 4.56685 2.03142 6.26539 1.57035V1.57035ZM1.64034 5.99878H3.93254C3.75974 6.65141 3.67016 7.32327 3.66592 7.99837C3.67016 8.67348 3.75974 9.34533 3.93254 9.99796H1.64034C1.23065 8.69638 1.23065 7.30036 1.64034 5.99878V5.99878ZM2.23488 11.331H4.38178C4.8634 12.445 5.49732 13.4867 6.26539 14.4264C4.56685 13.9653 3.1186 12.8531 2.23488 11.331V11.331ZM9.73469 14.4264C10.5016 13.4865 11.1344 12.4448 11.615 11.331H13.7619C12.8789 12.8524 11.432 13.9645 9.73469 14.4264V14.4264ZM14.3564 9.99796H12.0642C12.237 9.34533 12.3266 8.67348 12.3308 7.99837C12.3266 7.32327 12.237 6.65141 12.0642 5.99878H14.3551C14.7648 7.30036 14.7648 8.69638 14.3551 9.99796H14.3564Z" fill="#440206"/>
</svg>
