<svg preserveAspectRatio="none" width="100%" height="100%" overflow="visible" style="display: block;" viewBox="0 0 15.9967 15.9967" fill="none" xmlns="http://www.w3.org/2000/svg">
<g id="Icon" clip-path="url(#clip0_0_34)">
<path id="Vector" d="M10.6645 13.9972V12.6641C10.6645 11.957 10.3836 11.2789 9.88361 10.7789C9.38361 10.2789 8.70547 9.99796 7.99837 9.99796H3.99919C3.29209 9.99796 2.61395 10.2789 2.11395 10.7789C1.61396 11.2789 1.33306 11.957 1.33306 12.6641V13.9972" stroke="#440206" stroke-width="1.33306" stroke-linecap="round" stroke-linejoin="round"/>
<path id="Vector_2" d="M5.99878 7.33184C7.47124 7.33184 8.6649 6.13818 8.6649 4.66572C8.6649 3.19326 7.47124 1.99959 5.99878 1.99959C4.52632 1.99959 3.33265 3.19326 3.33265 4.66572C3.33265 6.13818 4.52632 7.33184 5.99878 7.33184Z" stroke="#440206" stroke-width="1.33306" stroke-linecap="round" stroke-linejoin="round"/>
<path id="Vector_3" d="M12.6641 5.33225V9.33143" stroke="#440206" stroke-width="1.33306" stroke-linecap="round" stroke-linejoin="round"/>
<path id="Vector_4" d="M14.6637 7.33184H10.6645" stroke="#440206" stroke-width="1.33306" stroke-linecap="round" stroke-linejoin="round"/>
</g>
<defs>
<clipPath id="clip0_0_34">
<rect width="15.9967" height="15.9967" fill="white"/>
</clipPath>
</defs>
</svg>
