<svg preserveAspectRatio="none" width="100%" height="100%" overflow="visible" style="display: block;" viewBox="0 0 15.9967 15.9967" fill="none" xmlns="http://www.w3.org/2000/svg">
<g id="Icon" clip-path="url(#clip0_0_22)">
<path id="Vector" d="M14.4837 11.9975L9.15147 2.66611C9.03521 2.46096 8.8666 2.29031 8.66286 2.17159C8.45911 2.05287 8.22752 1.99032 7.99171 1.99032C7.7559 1.99032 7.52431 2.05287 7.32056 2.17159C7.11682 2.29031 6.94821 2.46096 6.83195 2.66611L1.4997 11.9975C1.38218 12.2011 1.32055 12.4321 1.32107 12.6671C1.32159 12.9021 1.38424 13.1328 1.50266 13.3358C1.62108 13.5388 1.79107 13.7069 1.99539 13.8231C2.19972 13.9392 2.43111 13.9993 2.66613 13.9971H13.3306C13.5645 13.9969 13.7942 13.9351 13.9967 13.818C14.1991 13.7009 14.3672 13.5326 14.4841 13.33C14.6009 13.1274 14.6624 12.8976 14.6623 12.6637C14.6623 12.4298 14.6007 12.2001 14.4837 11.9975Z" stroke="#440206" stroke-width="1.33306" stroke-linecap="round" stroke-linejoin="round"/>
<path id="Vector_2" d="M7.99837 5.99878V8.6649" stroke="#440206" stroke-width="1.33306" stroke-linecap="round" stroke-linejoin="round"/>
<path id="Vector_3" d="M7.99837 11.331H8.00504" stroke="#440206" stroke-width="1.33306" stroke-linecap="round" stroke-linejoin="round"/>
</g>
<defs>
<clipPath id="clip0_0_22">
<rect width="15.9967" height="15.9967" fill="white"/>
</clipPath>
</defs>
</svg>
