<svg preserveAspectRatio="none" width="100%" height="100%" overflow="visible" style="display: block;" viewBox="0 0 15.9967 15.9967" fill="none" xmlns="http://www.w3.org/2000/svg">
<g id="Icon">
<path id="Vector" d="M7.99837 1.99959C7.20289 2.79508 6.75599 3.87399 6.75599 4.99898C6.75599 6.12397 7.20289 7.20288 7.99837 7.99837C8.79386 8.79386 9.87277 9.24076 10.9978 9.24076C12.1228 9.24076 13.2017 8.79386 13.9972 7.99837C13.9972 9.18482 13.6453 10.3446 12.9862 11.3311C12.327 12.3176 11.3901 13.0865 10.294 13.5405C9.19787 13.9946 7.99172 14.1134 6.82807 13.8819C5.66442 13.6504 4.59554 13.0791 3.7566 12.2401C2.91765 11.4012 2.34632 10.3323 2.11486 9.16868C1.8834 8.00503 2.00219 6.79887 2.45623 5.70274C2.91026 4.6066 3.67914 3.66972 4.66563 3.01057C5.65213 2.35142 6.81193 1.99959 7.99837 1.99959Z" stroke="#440206" stroke-width="1.33306" stroke-linecap="round" stroke-linejoin="round"/>
</g>
</svg>
