<svg viewBox="0 0 311.084 379.769" fill="none" xmlns="http://www.w3.org/2000/svg">
<g id="Layer_1">
<g id="Group">
<g id="Vector">
</g>
<g id="Group_2">
<path id="Vector_2" d="M140.809 290.984L140.943 296.049L134.642 296.025L133.637 287.483C133.334 286.938 131.953 286.986 131.335 287.253C130.814 287.483 130.729 288.113 130.935 288.816L132.134 296.037L127.615 296.012L125.846 289.506C125.519 288.295 123.884 288.561 123.98 289.894C124.114 291.905 124.768 293.468 125.253 295.625L115.415 296.049C112.01 287.338 115.197 283.145 122.09 278.408C124.114 277.027 125.858 278.19 126.622 276.712C126.84 276.288 126.828 275.476 126.573 275.028C125.228 272.593 124.017 270.4 122.842 267.867C114.142 249.282 104.632 225.753 104.317 205.047C104.292 203.799 103.674 203.024 102.511 202.988C101.457 202.963 100.452 203.836 100.73 205.047C101.954 210.475 103.359 216.666 104.716 222.603C108.86 240.825 116.251 259.52 124.017 275.173C120.091 277.16 112.991 280.916 111.719 285.205C110.471 288.719 110.811 292.341 112.01 296.012L92.2977 295.964C95.363 294.05 96.9986 291.348 99.3975 288.876C103.408 284.721 107.539 280.274 109.369 274.555C111.404 268.207 111.998 261.543 110.726 255.001C110.156 252.056 108.763 249.391 106.388 247.622C101.796 244.205 95.4236 245.381 92.0312 249.912C89.0022 253.946 88.6145 257.69 86.6881 262.524C83.2109 271.211 75.1902 276.93 66.1155 276.845C65.1099 276.845 64.0437 276.445 64.0801 277.294C64.1285 278.251 64.9282 278.869 65.958 278.857C73.7242 278.796 80.5696 275.404 85.3917 269.782C86.882 268.037 88.6145 266.535 89.5717 264.269C91.5586 259.544 92.5158 252.795 95.6295 249.742C97.4833 247.925 99.9185 247.162 102.511 247.901C104.571 248.482 105.637 252.032 107.103 254.213C111.865 261.337 109.26 267.262 107.515 273.283C104.741 282.818 98.6585 289.833 89.7776 294.159C88.7962 294.631 87.2454 295.613 87.6331 296.739C75.6022 301.755 57.792 300.822 50.4741 288.355C48.3054 284.672 47.4451 280.65 48.2205 276.397C49.9894 266.607 57.5133 258.975 67.1211 256.757C65.9823 245.465 66.9394 237.057 71.4222 226.94C75.057 218.75 79.3217 211.141 83.8894 203.424C88.0693 196.36 91.9342 189.418 95.6538 182.1C99.8822 173.752 102.475 165.017 103.311 155.445C108.024 162.012 116.747 167.561 123.799 170.808C124.695 171.22 125.725 170.869 126.137 170.105C126.537 169.378 126.44 168.191 125.471 167.731C118.65 164.447 111.223 159.989 106.619 153.81C106.255 153.313 105.395 152.949 104.777 153.083C104.317 153.18 103.711 153.822 103.408 154.258C103.372 151.895 101.578 150.478 100.573 147.655C109.975 143.608 119.619 140.822 129.675 139.101C130.402 138.98 130.814 138.398 130.753 137.732C130.705 137.247 130.05 136.617 129.396 136.739C119.158 138.459 109.381 141.33 99.6762 145.426C97.98 141.815 97.0107 138.132 96.3686 134.073C106.122 132.849 115.839 132.668 125.701 133.298C126.404 133.346 127.034 133.007 127.179 132.498C127.361 131.88 126.973 131.044 126.186 130.996C116.129 130.329 106.255 130.511 96.1384 131.698C95.9809 127.991 96.1142 124.502 96.7442 120.843C108.775 121.751 120.406 124.38 131.589 128.791C132.304 129.069 133.104 128.875 133.297 128.33C133.552 127.652 133.297 126.937 132.558 126.634C121.23 122.163 109.442 119.449 97.1561 118.529C98.3435 114.034 99.8701 109.854 101.821 105.674C102.136 104.995 102.245 104.099 102.257 103.323L102.402 85.61L102.972 75.1904C103.19 71.2286 103.832 67.3879 105.153 63.7047C105.589 62.481 106.655 61.7662 107.951 62.1418C113.949 63.8622 124.138 72.9975 128.948 77.4076L134.824 82.8113C147.546 80.0852 160.352 80.0246 173.086 82.9566L179.18 77.4076C183.723 73.264 194.882 63.002 200.746 62.1781C206.61 61.3542 205.544 100.924 205.956 105.056C207.652 109.842 210.196 114.361 211.008 119.752C199.716 120.964 188.521 123.399 177.884 127.664C177.181 127.942 176.914 128.536 177.035 129.178C177.157 129.82 177.944 130.208 178.707 129.905C189.236 125.75 200.152 123.169 211.444 122.127C212.062 125.628 212.135 128.936 211.941 132.534C202.721 131.553 193.707 131.468 184.462 132.001C183.651 132.05 183.057 132.595 183.118 133.286C183.178 134.025 183.881 134.437 184.717 134.388C193.695 133.807 202.503 133.879 211.602 134.897C211.178 138.738 210.015 142.142 208.718 145.607C199.716 142.009 190.69 139.392 181.227 137.817C180.537 137.696 179.858 138.071 179.701 138.58C179.495 139.234 179.834 139.986 180.561 140.107C189.902 141.682 198.868 144.178 207.713 147.812L204.369 153.955C203.472 153.592 202.466 153.507 201.885 154.209C200.625 155.712 199.486 157.105 198.032 158.414C193.707 162.303 189.054 165.659 183.784 168.106C182.742 168.591 182.148 169.378 182.572 170.566C182.827 171.281 184.002 171.983 184.971 171.523C191.574 168.409 199.05 163.03 203.848 157.469C203.92 157.384 204.175 157.129 204.187 157.214C204.199 157.299 204.247 157.529 204.26 157.687C205.071 166.18 207.398 174.14 211.032 181.858C214.994 190.278 219.356 198.226 223.863 206.356C229.145 215.891 235.555 223.693 239.104 233.883C243.539 246.616 242.473 260.295 237.735 272.774C235.797 277.887 233.87 282.697 231.338 287.531C229.012 291.978 224.614 295.564 219.453 295.867C212.595 296.267 205.883 295.94 198.916 295.988C201.812 285.06 194.93 281.134 186.304 276.106C197.196 255.316 205.859 233.168 208.064 209.675C208.173 208.537 208.427 207.349 207.458 207.216C206.343 207.071 205.532 207.798 205.398 208.936C204.708 215.019 203.86 220.883 202.479 226.88C199.946 237.857 197.087 248.458 192.483 258.72C189.914 264.427 186.437 269.564 183.36 274.967C183.105 275.416 183.287 276.482 183.59 276.845C184.632 278.093 185.977 276.76 188.921 279.123C191.005 280.795 193.295 282.419 194.64 284.793C196.59 288.246 196.215 292.426 194.846 295.988L190.799 295.685C191.078 293.601 191.914 291.869 191.914 289.785C191.914 288.573 189.163 288.246 188.86 289.373L187.661 295.976H182.96L184.208 289.785C184.414 288.743 184.462 287.774 183.651 287.18C183.081 286.768 181.603 286.611 181.106 287.447L179.87 295.697L173.11 295.94C173.619 293.238 174.103 291.263 174.309 288.791C174.37 288.137 173.473 287.653 172.916 287.628C172.359 287.604 171.147 287.859 171.002 288.549L169.984 296L159.383 296.037C157.783 293.783 156.063 291.493 155.3 288.731C153.228 281.219 153.337 265.081 153.919 257.06L156.027 227.728C156.099 226.65 155.76 225.814 154.876 225.535C154.27 225.341 153.943 225.947 153.846 226.977C152.453 240.595 151.398 253.644 151.12 267.371C150.999 273.295 151.447 278.784 152.125 284.575C152.61 288.731 152.44 292.317 154.767 295.988L143.79 296.025L143.414 290.015C143.208 289.252 141.718 289.143 141.027 289.203C140.179 289.276 140.543 289.906 140.785 290.936L140.809 290.984ZM121.836 89.5113L126.004 87.0275C121.8 82.157 116.856 77.032 111.622 73.4458C111.38 73.2761 110.496 73.0338 110.326 73.2761L109.72 74.1727C108.606 81.0787 108.169 89.8505 109.635 96.7565L121.836 89.4992V89.5113ZM198.274 97.0473C199.704 90.323 199.292 80.4002 198.093 74.1606C198.032 73.8456 197.656 73.2398 197.438 73.2761L196.627 73.4458C191.211 76.9715 186.219 82.266 181.906 87.3304L192.483 93.4731L198.274 97.0594V97.0473ZM152.477 143.136L157.953 138.326L158.159 132.401C159.795 131.117 161.03 129.469 162.339 127.846L165.489 123.969C165.792 123.593 165.731 122.503 165.489 122.127C164.193 120.188 151.507 121.024 148.66 121.23C147.97 121.279 147.182 121.533 146.928 122.006C146.588 122.624 146.722 123.411 147.146 123.92L151.471 129.13C152.598 130.475 153.676 131.614 155.106 132.752L154.839 138.338L157.965 138.314L152.477 143.136ZM105.043 183.312L107.091 188.594C107.236 188.957 108.048 189.212 108.436 188.994C108.715 188.836 108.908 188.122 108.787 187.794L106.34 181.143L108.666 177.242C108.824 176.975 108.557 176.151 108.266 176.091C108.024 176.03 107.273 176.054 107.127 176.284L105.431 178.889C105.068 178.029 104.704 177.06 104.474 176.284L107.842 169.172C108.024 168.797 107.612 167.961 107.261 167.888C105.722 167.585 105.286 171.038 103.166 174.249C102.705 174.94 102.548 175.339 102.245 176.175C101.057 179.398 98.0042 182.754 99.4339 183.348C99.7126 183.469 100.5 183.372 100.67 183.093L103.25 178.756C103.662 179.58 103.977 180.367 104.147 181.082C101.93 185.02 100.112 188.8 98.501 193.041C98.3677 193.404 98.8402 194.119 99.1552 194.167C99.4702 194.216 100.161 193.973 100.294 193.646C101.736 189.999 103.19 186.801 105.056 183.336L105.043 183.312ZM154.318 211.311C152.658 204.975 150.187 199.232 146.855 193.731C146.576 193.271 145.716 193.15 145.365 193.452C145.074 193.695 145.074 194.458 145.316 194.846C148.6 200.165 150.914 205.823 152.513 211.868C152.695 212.535 153.167 212.862 153.87 212.692C154.221 212.607 154.476 211.953 154.306 211.311H154.318ZM154.318 196.772C154.137 196.397 153.398 196.154 153.095 196.336C152.792 196.518 152.525 197.208 152.658 197.523C153.761 200.104 154.512 202.394 155.215 205.096C155.348 205.592 155.99 205.871 156.487 205.786C158.183 205.471 154.924 198.044 154.33 196.784L154.318 196.772ZM184.644 245.793C185.953 242.243 187.007 238.838 187.964 235.191L190.956 232.901C191.271 232.659 191.417 231.75 191.162 231.46C190.278 230.466 189.49 231.932 188.667 232.017L189.151 228.091L194.094 224.699C194.458 224.445 194.676 223.73 194.518 223.391C194.312 222.954 193.513 222.761 193.149 223.015L189.599 225.547L189.963 217.551C189.975 217.151 189.091 216.69 188.751 216.824C188.461 216.933 188.097 217.526 188.073 217.914C187.964 221.064 187.818 223.912 187.443 226.953L180.513 231.096C180.125 231.326 179.907 232.005 180.052 232.368C180.173 232.659 180.997 232.986 181.3 232.804L187.079 229.388L186.243 234.101C183.59 235.906 181.191 237.445 178.441 239.056C178.138 239.238 177.956 240.013 178.126 240.353C178.271 240.655 179.059 240.837 179.35 240.668L185.419 237.081C184.68 240.098 183.796 242.412 182.827 245.138C182.669 245.587 182.948 246.326 183.348 246.423C183.82 246.544 184.462 246.277 184.644 245.78V245.793ZM230.199 239.747C228.406 234.052 225.85 229.049 222.264 224.457C221.973 224.081 221.234 224.033 220.955 224.251C220.713 224.445 220.519 225.281 220.713 225.535C224.214 230.103 226.771 234.973 228.443 240.498C228.552 240.837 229.291 241.104 229.618 241.043C229.957 240.983 230.381 240.316 230.199 239.759V239.747ZM127.809 259.386C125.967 255.837 124.441 252.505 123.217 248.458L128.391 250.384C128.79 250.53 129.554 250.13 129.639 249.73C129.711 249.427 129.433 248.761 129.081 248.628C126.816 247.816 124.538 246.944 122.333 245.817C121.4 242.17 120.77 238.753 120.309 235.131C120.261 234.779 119.522 234.489 119.219 234.573C117.571 235.07 119.873 242.437 119.958 244.302L118.371 243.684C118.08 243.575 117.426 243.927 117.341 244.23C117.256 244.533 117.511 245.272 117.789 245.429L120.77 247.15C122.078 251.79 123.896 255.946 126.076 260.186C126.319 260.659 127.034 260.889 127.385 260.683C127.785 260.453 128.015 259.786 127.809 259.399V259.386ZM224.953 257.169C225.062 250.154 224.142 243.527 222.082 236.948C221.924 236.451 221.306 236.064 220.955 236.173C220.483 236.318 220.131 237.009 220.289 237.53C222.239 244.048 223.257 250.554 223.063 257.387C223.051 257.933 223.742 258.357 224.178 258.284C224.493 258.235 224.941 257.714 224.953 257.169Z" fill="white"/>
<path id="Vector_3" d="M151.459 129.142C152.586 130.487 153.664 131.626 155.094 132.765L154.851 138.653C155.881 138.556 156.923 138.495 157.977 138.495L158.159 132.413C159.795 131.129 161.03 129.481 162.339 127.858L165.489 123.981C165.792 123.605 165.731 122.515 165.489 122.139C164.193 120.201 151.507 121.037 148.66 121.243C147.97 121.291 147.182 121.545 146.928 122.018C146.588 122.636 146.722 123.423 147.146 123.932L151.471 129.142H151.459Z" fill="#090A0A"/>
<path id="Vector_4" d="M198.274 97.0473L192.483 93.461L181.906 87.3183C186.219 82.2539 191.211 76.9594 196.627 73.4337L197.438 73.264C197.656 73.2156 198.032 73.8335 198.093 74.1485C199.292 80.3881 199.692 90.3109 198.274 97.0352V97.0473Z" fill="#090A0A"/>
<path id="Vector_5" d="M121.836 89.5112L109.635 96.7686C108.181 89.8626 108.605 81.0908 109.72 74.1848L110.326 73.2882C110.495 73.0459 111.368 73.2882 111.622 73.4578C116.856 77.0441 121.8 82.1691 126.004 87.0396L121.836 89.5233V89.5112Z" fill="#090A0A"/>
<path id="Vector_6" d="M184.644 245.793C184.462 246.289 183.82 246.556 183.348 246.435C182.948 246.326 182.669 245.587 182.827 245.151C183.796 242.424 184.668 240.11 185.419 237.094L179.349 240.68C179.059 240.849 178.283 240.656 178.126 240.365C177.956 240.026 178.126 239.25 178.441 239.068C181.191 237.457 183.59 235.918 186.243 234.113L187.079 229.4L181.3 232.817C180.997 232.998 180.173 232.671 180.052 232.38C179.907 232.017 180.125 231.339 180.513 231.108L187.443 226.965C187.818 223.924 187.964 221.076 188.073 217.926C188.085 217.539 188.461 216.957 188.751 216.836C189.078 216.703 189.975 217.163 189.963 217.563L189.599 225.559L193.149 223.027C193.513 222.773 194.312 222.967 194.518 223.403C194.676 223.73 194.458 224.457 194.094 224.711L189.151 228.104L188.667 232.029C189.49 231.944 190.278 230.478 191.162 231.472C191.417 231.763 191.271 232.683 190.956 232.914L187.964 235.203C187.007 238.85 185.953 242.255 184.644 245.805V245.793Z" fill="#090A0A"/>
<path id="Vector_7" d="M105.043 183.312C103.178 186.777 101.724 189.987 100.282 193.622C100.161 193.937 99.4823 194.192 99.1431 194.143C98.8038 194.095 98.3555 193.368 98.4888 193.016C100.1 188.776 101.918 184.996 104.135 181.058C103.965 180.343 103.65 179.556 103.238 178.732L100.658 183.069C100.488 183.36 99.6883 183.445 99.4217 183.324C97.9921 182.73 101.045 179.362 102.233 176.151C102.535 175.315 102.693 174.915 103.153 174.225C105.274 171.014 105.722 167.561 107.249 167.864C107.6 167.937 108.012 168.773 107.83 169.148L104.462 176.26C104.692 177.036 105.056 178.005 105.419 178.865L107.115 176.26C107.261 176.03 108.012 176.006 108.254 176.066C108.545 176.139 108.811 176.951 108.654 177.217L106.328 181.119L108.775 187.77C108.896 188.097 108.702 188.812 108.424 188.97C108.036 189.188 107.224 188.933 107.079 188.57L105.031 183.287L105.043 183.312Z" fill="#090A0A"/>
<path id="Vector_8" d="M127.809 259.387C128.015 259.774 127.773 260.441 127.385 260.671C127.034 260.877 126.319 260.647 126.076 260.174C123.896 255.934 122.09 251.79 120.77 247.138L117.789 245.417C117.523 245.26 117.256 244.521 117.341 244.218C117.426 243.915 118.068 243.563 118.371 243.672L119.958 244.29C119.873 242.437 117.571 235.058 119.219 234.561C119.522 234.464 120.273 234.767 120.309 235.119C120.77 238.741 121.412 242.158 122.333 245.805C124.538 246.944 126.816 247.804 129.081 248.616C129.433 248.749 129.711 249.415 129.638 249.718C129.554 250.106 128.778 250.518 128.391 250.372L123.217 248.446C124.441 252.493 125.967 255.825 127.809 259.374V259.387Z" fill="#090A0A"/>
<path id="Vector_9" d="M224.953 257.169C224.953 257.714 224.493 258.235 224.178 258.284C223.741 258.344 223.051 257.933 223.063 257.387C223.257 250.566 222.239 244.048 220.289 237.53C220.131 237.009 220.47 236.318 220.955 236.173C221.306 236.064 221.924 236.451 222.082 236.948C224.129 243.515 225.062 250.142 224.953 257.169Z" fill="#090A0A"/>
<path id="Vector_10" d="M154.318 211.311C154.488 211.953 154.233 212.608 153.882 212.692C153.179 212.862 152.695 212.547 152.525 211.868C150.926 205.811 148.612 200.165 145.328 194.846C145.086 194.458 145.086 193.695 145.377 193.453C145.728 193.15 146.588 193.271 146.867 193.731C150.199 199.232 152.67 204.975 154.33 211.311H154.318Z" fill="#090A0A"/>
<path id="Vector_11" d="M230.199 239.747C230.381 240.304 229.957 240.971 229.618 241.031C229.303 241.092 228.551 240.825 228.442 240.486C226.77 234.961 224.202 230.091 220.713 225.523C220.519 225.269 220.713 224.433 220.955 224.239C221.234 224.021 221.973 224.069 222.263 224.445C225.85 229.037 228.406 234.04 230.199 239.735V239.747Z" fill="#090A0A"/>
<path id="Vector_12" d="M154.318 196.772C154.912 198.032 158.171 205.459 156.475 205.774C155.978 205.859 155.336 205.58 155.203 205.084C154.5 202.394 153.749 200.092 152.646 197.511C152.513 197.196 152.78 196.506 153.083 196.324C153.386 196.142 154.137 196.385 154.306 196.76L154.318 196.772Z" fill="#090A0A"/>
</g>
<g id="Group_3">
<path id="Vector_13" d="M177.048 129.19C177.048 129.19 209.481 118.323 224.965 119.195" stroke="#090A0A" stroke-width="3.63473" stroke-miterlimit="10" stroke-linecap="round"/>
<path id="Vector_14" d="M184.256 133.164C184.256 133.164 207.531 132.983 223.015 133.855" stroke="#090A0A" stroke-width="3.63473" stroke-miterlimit="10" stroke-linecap="round"/>
<path id="Vector_15" d="M181.106 138.701C181.106 138.701 203.012 146.262 218.496 147.134" stroke="#090A0A" stroke-width="3.63473" stroke-miterlimit="10" stroke-linecap="round"/>
</g>
<g id="Group_4">
<path id="Vector_16" d="M132.886 127.979C132.886 127.979 100.452 117.111 84.9677 117.983" stroke="#090A0A" stroke-width="3.63473" stroke-miterlimit="10" stroke-linecap="round"/>
<path id="Vector_17" d="M125.665 131.953C125.665 131.953 102.39 131.771 86.9064 132.643" stroke="#090A0A" stroke-width="3.63473" stroke-miterlimit="10" stroke-linecap="round"/>
<path id="Vector_18" d="M128.815 137.49C128.815 137.49 106.909 145.05 91.4255 145.922" stroke="#090A0A" stroke-width="3.63473" stroke-miterlimit="10" stroke-linecap="round"/>
</g>
<path id="Vector_19" d="M180.694 172.335C180.694 172.335 198.008 163.139 204.393 153.955" stroke="#090A0A" stroke-width="3.63473" stroke-miterlimit="10" stroke-linecap="round"/>
<path id="Vector_20" d="M128.694 171.487C128.694 171.487 111.901 163.539 104.886 154.827" stroke="#090A0A" stroke-width="3.63473" stroke-miterlimit="10" stroke-linecap="round"/>
<path id="Vector_21" d="M138.277 143.136C138.277 143.136 152.683 146.286 156.208 137.49" stroke="#090A0A" stroke-width="3.63473" stroke-miterlimit="10" stroke-linecap="round"/>
<path id="Vector_22" d="M174.661 143.136C174.661 143.136 160.255 146.286 156.73 137.49" stroke="#090A0A" stroke-width="3.63473" stroke-miterlimit="10" stroke-linecap="round"/>
<g id="Group_5">
<path id="Vector_23" d="M208.5 203.012C208.5 203.012 201.146 252.105 185.08 275.125C184.487 275.973 184.814 277.136 185.807 277.451C190.775 278.99 202.248 283.497 196.324 297.406" stroke="#090A0A" stroke-width="3.63473" stroke-miterlimit="10" stroke-linecap="round"/>
<path id="Vector_24" d="M190.811 287.471L188.957 297.406" stroke="#090A0A" stroke-width="3.63473" stroke-miterlimit="10" stroke-linecap="round"/>
<path id="Vector_25" d="M182.972 287.471L181.106 297.406" stroke="#090A0A" stroke-width="3.63473" stroke-miterlimit="10" stroke-linecap="round"/>
<path id="Vector_26" d="M173.122 287.471L171.256 297.406" stroke="#090A0A" stroke-width="3.63473" stroke-miterlimit="10" stroke-linecap="round"/>
<path id="Vector_27" d="M155.409 222.639C155.409 222.639 146.007 292.886 159.08 297.406" stroke="#090A0A" stroke-width="3.63473" stroke-miterlimit="10" stroke-linecap="round"/>
</g>
<path id="Vector_28" d="M101.966 202.358C101.966 202.358 109.32 251.451 125.386 274.471C125.98 275.319 125.652 276.482 124.659 276.797C119.691 278.336 108.218 282.843 114.142 296.752" stroke="#090A0A" stroke-width="3.63473" stroke-miterlimit="10" stroke-linecap="round"/>
<path id="Vector_29" d="M124.344 287.471L126.198 297.406" stroke="#090A0A" stroke-width="3.63473" stroke-miterlimit="10" stroke-linecap="round"/>
<path id="Vector_30" d="M132.231 287.471L134.085 297.406" stroke="#090A0A" stroke-width="3.63473" stroke-miterlimit="10" stroke-linecap="round"/>
<path id="Vector_31" d="M141.052 287.471L142.796 296.751" stroke="#090A0A" stroke-width="3.63473" stroke-miterlimit="10" stroke-linecap="round"/>
<path id="Vector_32" d="M85.2585 298.593C92.5279 294.401 99.337 288.525 104.22 281.704C110.387 273.077 113.379 262.137 108.315 252.517C106.122 248.349 100.997 244.678 96.3928 247.719C92.0312 250.59 91.1952 256.079 89.3294 260.756C87.3666 265.687 83.7076 270.254 79.3581 273.526C75.0085 276.797 69.5201 278.808 64.0922 277.33" stroke="#090A0A" stroke-width="3.63473" stroke-miterlimit="10" stroke-linecap="round"/>
</g>
<path id="Vector_33" d="M131.868 108.266C131.868 108.266 135.115 104.583 138.277 107.503" stroke="#090A0A" stroke-width="3.63473" stroke-miterlimit="10" stroke-linecap="round"/>
<path id="Vector_34" d="M171.45 108.266C171.45 108.266 174.697 104.583 177.859 107.503" stroke="#090A0A" stroke-width="3.63473" stroke-miterlimit="10" stroke-linecap="round"/>
</g>
</svg>
