<svg width="248" height="248" viewBox="0 0 248 248" fill="none" xmlns="http://www.w3.org/2000/svg">
<path d="M98.7581 109.828C93.4355 121.925 84.2777 120.193 75.8546 122.206C72.0433 123.12 69.5941 126.358 69.6299 130.151C69.6658 134.362 71.446 138.126 74.397 141.161C84.4151 151.453 97.1213 147.69 109.529 145.814C132.128 142.391 138.687 157.792 136.978 160.115C136.626 160.599 135.294 161.023 134.726 160.844C132.701 160.211 133.328 153.257 123.257 150.193C108.113 145.593 87.8978 160.33 71.8522 144.13C68.5487 140.796 66.3503 136.585 65.7529 131.931C64.8867 125.169 69.1759 119.392 75.8427 118.263L84.6182 116.782C89.5346 115.951 93.2503 112.911 95.2157 108.203C98.7282 99.7921 99.9768 90.7777 100.108 81.5183C100.12 80.7297 100.837 79.6365 101.428 79.4573C102.02 79.2781 103.34 79.6485 103.71 80.2399L113.155 95.4073C116.948 93.0537 120.335 90.5865 123.292 87.3009L130.15 79.6784C130.616 79.1586 131.853 78.8659 132.367 78.9914C132.964 79.1347 133.711 80.2578 133.693 81.136L132.725 134.924C132.665 138.317 134.565 140.456 137.659 141.172C147.391 143.425 157.558 142.433 166.59 138.263C170.151 136.495 171.883 133.138 170.933 129.147L164.733 103.185C158.394 111.1 148.914 114.816 139.135 112.905C138.125 112.707 137.719 111.172 138.054 110.342C138.388 109.511 139.541 108.992 140.688 109.195C150.455 110.891 159.738 105.545 163.896 96.6379C164.117 96.166 165.294 95.7717 165.784 95.8494C166.363 95.939 167.307 96.8291 167.481 97.5639L174.745 128.078C176.143 133.962 173.496 139.297 167.911 141.931C158.03 146.603 146.56 147.481 135.867 144.745C131.769 143.693 128.776 140.026 128.848 135.635L129.619 86.4228C126.644 89.6486 114.947 101.566 111.13 99.6248L103.908 88.1313C102.856 95.9509 101.757 103.012 98.7581 109.828Z" fill="#440206"/>
<path d="M85.5262 141.483C80.7651 142.009 76.4938 138.837 75.2572 134.494C74.2178 130.85 76.446 127.415 80.2453 127.116C84.9109 126.752 89.3076 129.948 90.3709 134.518C91.1355 137.821 89.1881 141.077 85.5321 141.477L85.5262 141.483Z" fill="#440206"/>
<path d="M156.507 131.967C155.665 133.592 154.231 135.306 152.516 135.617C151.322 135.838 146.835 133.908 147.498 131.865C148.102 130.007 158.197 128.717 156.513 131.967H156.507Z" fill="#440206"/>
<path d="M110.867 118.4C112.163 117.719 113.74 118.359 114.135 119.362C114.595 120.539 114.314 122.17 113.137 122.761C112.151 123.257 110.628 122.929 109.989 121.889C109.427 120.975 109.511 119.117 110.867 118.406V118.4Z" fill="#440206"/>
<path d="M101.966 117.062C103.25 116.375 104.833 117.014 105.24 118.024C105.7 119.159 105.389 120.814 104.236 121.399C103.256 121.895 101.769 121.572 101.1 120.533C100.532 119.649 100.64 117.779 101.966 117.062Z" fill="#440206"/>
<path d="M154.052 119.715C155.24 119.189 156.65 119.852 156.919 120.706C157.259 121.776 156.889 123.305 155.939 123.717C154.989 124.129 153.586 123.699 153.132 122.899C152.612 121.985 152.791 120.264 154.052 119.709V119.715Z" fill="#440206"/>
<path d="M142.815 121.041C144.243 120.199 145.587 120.736 146.059 121.841C146.399 122.636 146.13 124.231 145.115 124.804C144.41 125.205 142.934 124.918 142.397 124.195C141.823 123.43 141.949 121.555 142.815 121.041Z" fill="#440206"/>
<path d="M28.5422 77.1096L14.229 68.7583L20.0295 58.8179C23.6676 52.5813 26.8636 51.739 30.3761 53.788C33.9843 55.8907 34.8266 59.0927 31.1886 65.3293L29.6115 68.0354L32.7716 69.8754L28.5482 77.1096H28.5422ZM24.94 65.3114L26.3498 62.898C26.8397 62.0557 26.7202 61.5897 26.2303 61.303C25.7405 61.0162 25.2745 61.1417 24.7847 61.984L23.3749 64.3974L24.946 65.3114H24.94Z" fill="#440206"/>
<path d="M43.1542 54.0568L31.4038 42.3721L44.5939 29.1103L48.2798 32.7782L40.932 40.1677L41.8639 41.0937L47.5151 35.4126L49.9763 37.8619L44.3251 43.5429L45.2749 44.4868L52.7183 37.0016L56.434 40.6994L43.1483 54.0568H43.1542Z" fill="#440206"/>
<path d="M66.6431 33.5488L61.5893 25.0899L56.3443 28.2202L52.8975 22.4495L70.9443 11.6668L74.3911 17.4375L69.188 20.5439L74.2418 29.0027L66.6431 33.5428V33.5488Z" fill="#440206"/>
<path d="M97.1214 11.3024L97.0019 10.4481C96.3627 5.79457 99.4512 1.72642 107.39 0.639192C115.15 -0.424142 118.842 2.14459 119.947 7.00725L110.975 8.23785C110.67 7.52099 109.929 6.93556 108.262 7.16854C106.488 7.41346 105.771 8.38122 105.933 9.57L105.957 9.74921C106.118 10.938 107.068 11.6787 108.848 11.4398C110.515 11.2128 111.07 10.4481 111.172 9.67753L120.144 8.44693C120.389 13.4291 117.522 16.8939 109.762 17.9572C101.823 19.0444 97.7606 15.956 97.1214 11.3024Z" fill="#440206"/>
<path d="M127.785 16.5235L129.105 0L137.952 0.704907L136.632 17.2224L127.785 16.5175V16.5235Z" fill="#440206"/>
<path d="M143.782 17.8915L148.538 2.01913L160.736 5.67509C162.259 6.1291 163.508 6.62492 164.494 7.13269C165.503 7.64644 166.244 8.24979 166.758 8.90093C167.271 9.55208 167.57 10.3048 167.636 11.1053C167.719 11.9356 167.582 12.8675 167.265 13.9309C166.925 15.0599 166.501 15.9261 165.945 16.5175C165.408 17.1149 164.697 17.5151 163.807 17.7242L164.762 24.1699L155.067 21.2607L154.971 16.6848L154.165 16.4458L152.916 20.6215L143.782 17.8855V17.8915ZM154.428 11.5593L157.343 12.4314C158.323 12.7242 158.747 12.4972 158.902 11.9774C159.063 11.4338 158.83 11.0336 157.851 10.7409L154.936 9.86869L154.428 11.5652V11.5593Z" fill="#440206"/>
<path d="M174.333 19.9225L174.793 19.1937C177.308 15.2212 182.284 14.1041 189.058 18.3873C195.677 22.5749 196.854 26.9179 194.56 31.3504L186.907 26.5057C187.134 25.7649 186.943 24.833 185.521 23.9369C184.004 22.9811 182.833 23.2559 182.194 24.2774L182.098 24.4328C181.453 25.4483 181.704 26.6251 183.222 27.5869C184.643 28.483 185.563 28.262 186.137 27.7363L193.789 32.581C190.766 36.5536 186.34 37.3481 179.721 33.1605C172.947 28.8773 171.83 23.8951 174.339 19.9225H174.333Z" fill="#440206"/>
<path d="M194.47 43.4473L206.531 32.0852L212.636 38.5608L205.528 45.2574L210.82 50.8728L205.862 55.5443L194.47 43.4473Z" fill="#440206"/>
<path d="M209.847 60.7594L224.184 52.4558L233.557 68.6388L229.058 71.2434L223.837 62.2289L222.696 62.886L226.711 69.8216L223.706 71.56L219.691 64.6244L218.533 65.2935L223.819 74.4274L219.285 77.0559L209.847 60.7534V60.7594Z" fill="#440206"/>
<path d="M6.1227 135.229L6.9889 135.037C11.5529 134.028 15.848 136.728 17.5625 144.488C19.277 152.248 16.5171 156.501 11.9531 157.511L11.0869 157.702C6.52294 158.712 2.22779 156.005 0.513314 148.251C-1.20116 140.491 1.55873 136.238 6.1227 135.229ZM9.6532 149.327C10.848 149.064 11.5111 147.523 11.1526 145.904C10.7882 144.261 9.5397 143.12 8.34494 143.389C7.15019 143.652 6.51697 145.211 6.87539 146.848C7.23382 148.466 8.45845 149.59 9.6532 149.327Z" fill="#440206"/>
<path d="M8.14771 171.949L20.2924 159.637L24.5338 167.338L18.6795 172.893L26.7919 171.436L29.5816 176.507L24.0201 182.553L31.8397 180.605L36.0751 188.3L19.1813 191.98L14.7607 183.945L20.2207 178.371L12.5803 179.984L8.15368 171.949H8.14771Z" fill="#440206"/>
<path d="M27.9448 203.413L39.5579 191.591L45.7109 197.637L44.4982 205.869L49.2055 201.078L55.0061 206.771L43.393 218.593L37.5805 212.882L38.7215 204.047L33.7454 209.112L27.9508 203.419L27.9448 203.413Z" fill="#440206"/>
<path d="M51.8041 224.799L60.2271 210.522L76.3384 220.032L73.698 224.513L64.7194 219.214L64.0503 220.349L70.95 224.423L69.1818 227.416L62.2821 223.342L61.6011 224.495L70.6932 229.859L68.0289 234.375L51.7981 224.799H51.8041Z" fill="#440206"/>
<path d="M77.2944 238.599L82.1093 222.739L94.2958 226.436C95.8132 226.896 97.0677 227.398 98.0474 227.906C99.051 228.426 99.7917 229.029 100.305 229.68C100.819 230.337 101.112 231.09 101.178 231.89C101.255 232.721 101.118 233.653 100.795 234.716C100.449 235.845 100.025 236.711 99.4632 237.303C98.9255 237.9 98.2146 238.3 97.3186 238.503L98.2564 244.955L88.567 242.016L88.4893 237.434L87.6828 237.189L86.4164 241.359L77.2944 238.587V238.599ZM87.9636 232.303L90.8728 233.187C91.8525 233.485 92.2767 233.258 92.432 232.733C92.5993 232.189 92.3603 231.789 91.3866 231.49L88.4774 230.606L87.9636 232.303Z" fill="#440206"/>
<path d="M112.701 246.747C110.419 246.377 108.621 246.006 107.366 245.618L107.671 238.27C109.188 238.904 110.891 239.471 112.874 239.967C114.899 240.463 116.548 240.714 117.862 240.767C120.222 240.869 121.548 240.672 121.566 240.218C121.602 239.399 118.095 239.549 114.612 239.107C111.154 238.689 107.653 237.655 107.778 234.597C107.844 233.007 108.848 231.825 110.747 230.994C112.647 230.14 115.389 229.8 118.949 229.949C122.307 230.086 125.461 230.72 128.454 231.938L128.155 238.605C127.11 238.109 125.831 237.619 124.284 237.171C122.713 236.741 121.088 236.448 119.457 236.377C116.554 236.209 115.497 237.117 117.115 237.44C118.107 237.661 119.851 237.804 121.823 237.954C123.812 238.127 125.891 238.509 127.546 239.101C129.135 239.71 130.246 240.851 130.18 242.392C130.031 246.024 125.843 247.733 118.244 247.416C116.841 247.357 114.983 247.118 112.707 246.753L112.701 246.747Z" fill="#440206"/>
<path d="M162.391 240.971C161.895 238.868 161.345 237.279 160.784 236.096C161.047 236.92 161.136 237.888 161.011 238.999C160.736 241.299 158.645 242.96 156.339 242.685C154.039 242.41 152.379 240.313 152.654 238.014C152.922 235.857 153.872 234.483 154.876 233.599C154.643 233.623 154.38 233.611 154.135 233.599C153.221 233.575 152.403 233.384 151.68 232.99C150.951 232.649 150.485 232.153 150.282 231.502C149.876 230.224 150.395 228.921 151.566 227.882C152.713 226.831 154.326 225.988 156.232 225.385C157.247 225.062 158.173 224.823 159.016 224.626C159.882 224.423 160.473 224.334 160.814 224.298L161.333 224.28L162.863 229.13C162.02 228.802 160.76 228.886 159.117 229.405C158.317 229.656 157.701 229.973 157.283 230.319C156.853 230.69 156.692 231.078 156.835 231.532C157.14 232.577 158.012 232.016 163.998 230.08L164.314 231.078L160.461 232.297C168.986 231.179 169.177 238.784 169.177 238.784L162.391 240.971ZM159.261 234.985C159.165 233.706 158.245 233.426 158.245 233.426C158.245 233.426 157.349 233.826 157.451 235.128C157.486 235.618 157.91 235.982 158.418 235.941C158.914 235.929 159.273 235.481 159.261 234.985Z" fill="#440206"/>
<path d="M194.787 225.439L180.426 215.468L187.857 209.943L193.24 214.256L193.765 213.861L191.023 207.583L198.168 202.278L202.947 219.369L194.787 225.433V225.439Z" fill="#440206"/>
<path d="M214.118 209.614L201.459 198.915L213.538 184.632L217.511 187.989L210.785 195.946L211.788 196.794L216.961 190.677L219.614 192.917L214.441 199.041L215.462 199.907L222.278 191.842L226.281 195.229L214.112 209.62L214.118 209.614Z" fill="#440206"/>
<path d="M234.465 181.734L225.665 177.308L222.917 182.762L216.914 179.739L226.364 160.964L232.368 163.986L229.644 169.399L238.443 173.825L234.465 181.734Z" fill="#440206"/>
<path d="M245.486 154.852C244.71 157.027 244.017 158.729 243.401 159.894L236.233 158.258C237.129 156.878 238.001 155.306 238.843 153.455C239.698 151.555 240.241 149.978 240.534 148.694C241.06 146.394 241.108 145.055 240.665 144.954C239.871 144.775 239.375 148.245 238.312 151.585C237.272 154.912 235.624 158.168 232.631 157.481C231.084 157.128 230.098 155.928 229.626 153.909C229.13 151.889 229.297 149.13 230.092 145.653C230.839 142.379 232.033 139.392 233.772 136.668L240.271 138.174C239.59 139.112 238.879 140.276 238.156 141.722C237.452 143.192 236.866 144.733 236.502 146.328C235.809 149.148 236.514 150.36 237.117 148.819C237.517 147.887 237.971 146.196 238.479 144.285C239.011 142.355 239.763 140.39 240.648 138.867C241.538 137.415 242.858 136.531 244.363 136.877C247.906 137.684 248.826 142.11 247.129 149.524C246.812 150.898 246.245 152.678 245.468 154.852H245.486Z" fill="#440206"/>
<path d="M236.209 105.879C237.423 105.879 238.407 104.895 238.407 103.681C238.407 102.467 237.423 101.483 236.209 101.483C234.995 101.483 234.01 102.467 234.01 103.681C234.01 104.895 234.995 105.879 236.209 105.879Z" fill="#440206"/>
<path d="M8.27306 103.675C9.48718 103.675 10.4714 102.691 10.4714 101.477C10.4714 100.263 9.48718 99.2783 8.27306 99.2783C7.05894 99.2783 6.07471 100.263 6.07471 101.477C6.07471 102.691 7.05894 103.675 8.27306 103.675Z" fill="#440206"/>
</svg>
