<svg width="344" height="366" viewBox="0 0 344 366" fill="none" xmlns="http://www.w3.org/2000/svg">
<g clip-path="url(#clip0_215_796)">
<path d="M98.8092 236.984L98.9425 242.049L92.6423 242.025L91.6367 233.483C91.3338 232.938 89.9526 232.986 89.3347 233.253C88.8137 233.483 88.7289 234.113 88.9349 234.816L90.1343 242.037L85.6152 242.012L83.8463 235.506C83.5191 234.295 81.8835 234.561 81.9804 235.894C82.1137 237.905 82.768 239.468 83.2526 241.625L73.4146 242.049C70.0101 233.338 73.1965 229.145 80.0904 224.408C82.1137 223.027 83.8584 224.19 84.6217 222.712C84.8398 222.288 84.8276 221.476 84.5732 221.028C83.2284 218.593 82.0168 216.4 80.8416 213.867C72.1424 195.282 62.6316 171.753 62.3165 151.047C62.2923 149.799 61.6744 149.024 60.5113 148.988C59.4572 148.963 58.4516 149.836 58.7303 151.047C59.954 156.475 61.3594 162.666 62.7164 168.603C66.86 186.825 74.2506 205.52 82.0168 221.173C78.0913 223.16 70.9914 226.916 69.7193 231.205C68.4714 234.719 68.8106 238.341 70.0101 242.012L50.2977 241.964C53.363 240.05 54.9986 237.348 57.3975 234.876C61.4079 230.721 65.5393 226.274 67.3688 220.555C69.4043 214.207 69.9979 207.543 68.7258 201.001C68.1563 198.056 66.763 195.391 64.3883 193.622C59.7965 190.205 53.4236 191.381 50.0312 195.912C47.0022 199.946 46.6145 203.69 44.6881 208.524C41.2109 217.211 33.1902 222.93 24.1155 222.845C23.1099 222.845 22.0437 222.445 22.0801 223.294C22.1285 224.251 22.9282 224.869 23.958 224.856C31.7242 224.796 38.5696 221.403 43.3917 215.782C44.882 214.037 46.6145 212.535 47.5717 210.269C49.5586 205.544 50.5158 198.795 53.6295 195.742C55.4833 193.925 57.9185 193.162 60.5113 193.901C62.571 194.482 63.6372 198.032 65.1032 200.213C69.8647 207.337 67.2598 213.262 65.5151 219.283C62.7406 228.818 56.6585 235.833 47.7776 240.159C46.7962 240.631 45.2454 241.613 45.6331 242.739C33.6022 247.755 15.792 246.822 8.47407 234.355C6.30535 230.672 5.44513 226.65 6.22054 222.397C7.98944 212.607 15.5133 204.975 25.1211 202.757C23.9823 191.465 24.9394 183.057 29.4222 172.94C33.057 164.75 37.3217 157.141 41.8894 149.424C46.0693 142.36 49.9342 135.418 53.6538 128.1C57.8822 119.752 60.4749 111.017 61.3109 101.445C66.024 108.012 74.7473 113.561 81.7987 116.808C82.6953 117.22 83.7251 116.869 84.1371 116.105C84.5369 115.378 84.4399 114.191 83.4707 113.731C76.6495 110.447 69.2225 105.989 64.6185 99.8096C64.2551 99.3129 63.3949 98.9494 62.777 99.0827C62.3166 99.1796 61.7108 99.8218 61.4079 100.258C61.3715 97.8953 59.5784 96.4778 58.5728 93.6548C67.9746 89.6082 77.6188 86.8215 87.6749 85.1011C88.4018 84.9799 88.8137 84.3984 88.7532 83.732C88.7047 83.2474 88.0504 82.6174 87.3962 82.7385C77.1584 84.459 67.3809 87.3304 57.6762 91.4255C55.98 87.815 55.0107 84.1318 54.3686 80.0731C64.1218 78.8494 73.8386 78.6676 83.7009 79.2976C84.4036 79.3461 85.0336 79.0069 85.179 78.498C85.3607 77.8801 84.973 77.0441 84.1855 76.9957C74.1294 76.3293 64.2551 76.511 54.1384 77.6984C53.9809 73.9909 54.1142 70.5016 54.7442 66.8426C66.7751 67.7513 78.4063 70.3804 89.5891 74.7906C90.304 75.0693 91.1036 74.8754 91.2975 74.3302C91.5519 73.6517 91.2975 72.9369 90.5584 72.634C79.2302 68.1633 67.4415 65.4493 55.1561 64.5285C56.3435 60.0336 57.8701 55.8536 59.8207 51.6737C60.1357 50.9952 60.2448 50.0986 60.2569 49.3232L60.4023 31.61L60.9717 21.1904C61.1898 17.2286 61.8319 13.3879 63.1525 9.70468C63.5887 8.48099 64.6549 7.76615 65.9513 8.14174C71.9486 9.86218 82.138 18.9975 86.9479 23.4076L92.8241 28.8112C105.546 26.0852 118.352 26.0246 131.086 28.9566L137.18 23.4076C141.723 19.264 152.882 9.00196 158.746 8.17809C164.61 7.35422 163.544 46.9243 163.956 51.0558C165.652 55.8415 168.196 60.3607 169.008 65.7522C157.716 66.9638 146.521 69.3991 135.884 73.6638C135.181 73.9425 134.914 74.5362 135.035 75.1783C135.157 75.8204 135.944 76.2081 136.707 75.9052C147.236 71.7495 158.152 69.1689 169.444 68.1269C170.062 71.6284 170.135 74.936 169.941 78.5344C160.721 77.553 151.707 77.4682 142.462 78.0013C141.651 78.0497 141.057 78.5949 141.118 79.2855C141.178 80.0246 141.881 80.4365 142.717 80.3881C151.695 79.8065 160.503 79.8792 169.602 80.8969C169.178 84.7376 168.015 88.1422 166.718 91.6073C157.716 88.0089 148.69 85.3919 139.227 83.8168C138.537 83.6957 137.858 84.0713 137.701 84.5801C137.495 85.2344 137.834 85.9855 138.561 86.1067C147.902 87.6818 156.868 90.1776 165.713 93.8123L162.369 99.955C161.472 99.5916 160.466 99.5067 159.885 100.209C158.625 101.712 157.486 103.105 156.032 104.414C151.707 108.303 147.054 111.659 141.784 114.106C140.742 114.591 140.148 115.378 140.572 116.566C140.827 117.281 142.002 117.983 142.971 117.523C149.574 114.409 157.05 109.03 161.848 103.469C161.92 103.384 162.175 103.129 162.187 103.214C162.199 103.299 162.247 103.529 162.26 103.687C163.071 112.18 165.398 120.14 169.032 127.858C172.994 136.278 177.356 144.226 181.863 152.356C187.145 161.891 193.555 169.693 197.104 179.883C201.539 192.616 200.473 206.295 195.735 218.774C193.797 223.887 191.87 228.697 189.338 233.531C187.012 237.978 182.614 241.564 177.453 241.867C170.595 242.267 163.883 241.94 156.916 241.988C159.812 231.06 152.93 227.134 144.304 222.106C155.196 201.316 163.859 179.168 166.064 155.675C166.173 154.537 166.427 153.349 165.458 153.216C164.343 153.071 163.532 153.798 163.398 154.936C162.708 161.018 161.86 166.883 160.478 172.88C157.946 183.857 155.087 194.458 150.483 204.72C147.914 210.427 144.437 215.564 141.36 220.967C141.105 221.416 141.287 222.482 141.59 222.845C142.632 224.093 143.977 222.76 146.921 225.123C149.005 226.795 151.295 228.419 152.64 230.793C154.59 234.246 154.215 238.426 152.846 241.988L148.799 241.685C149.078 239.601 149.914 237.869 149.914 235.785C149.914 234.573 147.163 234.246 146.86 235.373L145.661 241.976H140.96L142.208 235.785C142.414 234.743 142.462 233.774 141.651 233.18C141.081 232.768 139.603 232.611 139.106 233.447L137.87 241.697L131.11 241.94C131.619 239.238 132.103 237.263 132.309 234.791C132.37 234.137 131.473 233.653 130.916 233.628C130.359 233.604 129.147 233.859 129.002 234.549L127.984 242L117.383 242.037C115.783 239.783 114.063 237.493 113.3 234.731C111.228 227.219 111.337 211.081 111.919 203.06L114.027 173.728C114.099 172.65 113.76 171.814 112.876 171.535C112.27 171.341 111.943 171.947 111.846 172.977C110.453 186.595 109.398 199.644 109.12 213.371C108.999 219.295 109.447 224.784 110.125 230.575C110.61 234.731 110.44 238.317 112.767 241.988L101.79 242.025L101.414 236.015C101.208 235.252 99.7179 235.143 99.0273 235.203C98.1792 235.276 98.5427 235.906 98.785 236.936L98.8092 236.984ZM79.8359 35.5113L84.0038 33.0275C79.7996 28.157 74.8564 23.032 69.6224 19.4458C69.38 19.2761 68.4956 19.0338 68.326 19.2761L67.7202 20.1727C66.6055 27.0787 66.1694 35.8505 67.6354 42.7565L79.8359 35.4991V35.5113ZM156.274 43.0473C157.704 36.323 157.292 26.4002 156.093 20.1606C156.032 19.8456 155.656 19.2398 155.438 19.2761L154.627 19.4458C149.211 22.9714 144.219 28.266 139.906 33.3304L150.483 39.4731L156.274 43.0594V43.0473ZM110.477 89.1356L115.953 84.3257L116.159 78.4011C117.795 77.1168 119.03 75.4691 120.339 73.8456L123.489 69.9685C123.792 69.5929 123.731 68.5025 123.489 68.1269C122.193 66.1884 109.507 67.0244 106.66 67.2303C105.97 67.2788 105.182 67.5332 104.928 68.0057C104.588 68.6237 104.722 69.4112 105.146 69.92L109.471 75.1298C110.598 76.4747 111.676 77.6136 113.106 78.7524L112.839 84.3378L115.965 84.3136L110.477 89.1356ZM63.0435 129.312L65.0911 134.594C65.2364 134.957 66.0482 135.212 66.4359 134.994C66.7146 134.836 66.9084 134.121 66.7873 133.794L64.3399 127.143L66.6661 123.242C66.8236 122.975 66.5571 122.151 66.2663 122.091C66.024 122.03 65.2728 122.054 65.1274 122.284L63.4312 124.889C63.0677 124.029 62.7043 123.06 62.4741 122.284L65.8422 115.172C66.024 114.797 65.612 113.961 65.2607 113.888C63.722 113.585 63.2858 117.038 61.1656 120.249C60.7052 120.94 60.5476 121.339 60.2448 122.175C59.0574 125.398 56.0042 128.754 57.4339 129.348C57.7126 129.469 58.5001 129.372 58.6697 129.093L61.2504 124.756C61.6623 125.58 61.9773 126.367 62.1469 127.082C59.9297 131.02 58.1124 134.8 56.501 139.04C56.3677 139.404 56.8402 140.119 57.1552 140.167C57.4702 140.216 58.1608 139.973 58.2941 139.646C59.7359 135.999 61.1898 132.801 63.0556 129.336L63.0435 129.312ZM112.318 157.311C110.658 150.975 108.187 145.232 104.855 139.731C104.576 139.271 103.716 139.15 103.365 139.452C103.074 139.695 103.074 140.458 103.316 140.846C106.6 146.165 108.914 151.823 110.513 157.868C110.695 158.535 111.167 158.862 111.87 158.692C112.221 158.607 112.476 157.953 112.306 157.311H112.318ZM112.318 142.772C112.137 142.397 111.398 142.154 111.095 142.336C110.792 142.518 110.525 143.208 110.658 143.523C111.761 146.104 112.512 148.394 113.215 151.096C113.348 151.592 113.99 151.871 114.487 151.786C116.183 151.471 112.924 144.044 112.33 142.784L112.318 142.772ZM142.644 191.793C143.953 188.243 145.007 184.838 145.964 181.191L148.956 178.901C149.271 178.659 149.417 177.75 149.162 177.46C148.278 176.466 147.49 177.932 146.667 178.017L147.151 174.091L152.094 170.699C152.458 170.445 152.676 169.73 152.518 169.391C152.312 168.954 151.513 168.76 151.149 169.015L147.599 171.547L147.963 163.551C147.975 163.151 147.091 162.69 146.751 162.824C146.461 162.933 146.097 163.526 146.073 163.914C145.964 167.064 145.818 169.911 145.443 172.953L138.513 177.096C138.125 177.326 137.907 178.005 138.052 178.368C138.173 178.659 138.997 178.986 139.3 178.804L145.079 175.388L144.243 180.101C141.59 181.906 139.191 183.445 136.441 185.056C136.138 185.238 135.956 186.013 136.126 186.353C136.271 186.655 137.059 186.837 137.349 186.668L143.419 183.081C142.68 186.098 141.796 188.412 140.827 191.138C140.669 191.587 140.948 192.326 141.348 192.423C141.82 192.544 142.462 192.277 142.644 191.78V191.793ZM188.199 185.747C186.406 180.052 183.85 175.049 180.264 170.457C179.973 170.081 179.234 170.033 178.955 170.251C178.713 170.445 178.519 171.281 178.713 171.535C182.214 176.103 184.771 180.973 186.443 186.498C186.552 186.837 187.291 187.104 187.618 187.043C187.957 186.983 188.381 186.316 188.199 185.759V185.747ZM85.809 205.386C83.9674 201.837 82.4408 198.505 81.2171 194.458L86.3906 196.384C86.7904 196.53 87.5537 196.13 87.6385 195.73C87.7112 195.427 87.4325 194.761 87.0812 194.628C84.8155 193.816 82.5378 192.944 80.3327 191.817C79.3998 188.17 78.7698 184.753 78.3094 181.131C78.2609 180.779 77.5218 180.489 77.2189 180.573C75.5712 181.07 77.8732 188.436 77.958 190.302L76.3708 189.684C76.0801 189.575 75.4258 189.927 75.341 190.23C75.2562 190.533 75.5106 191.272 75.7893 191.429L78.7698 193.15C80.0783 197.79 81.8956 201.946 84.0765 206.186C84.3188 206.659 85.0336 206.889 85.385 206.683C85.7848 206.453 86.015 205.786 85.809 205.399V205.386ZM182.953 203.169C183.062 196.154 182.142 189.527 180.082 182.948C179.924 182.451 179.306 182.064 178.955 182.173C178.483 182.318 178.131 183.009 178.289 183.53C180.239 190.048 181.257 196.554 181.063 203.387C181.051 203.933 181.742 204.357 182.178 204.284C182.493 204.235 182.941 203.714 182.953 203.169Z" fill="white"/>
<path d="M109.459 75.142C110.586 76.4868 111.664 77.6257 113.094 78.7646L112.851 84.6528C113.881 84.5559 114.923 84.4953 115.977 84.4953L116.159 78.4132C117.795 77.1289 119.03 75.4812 120.339 73.8577L123.489 69.9806C123.792 69.6051 123.731 68.5146 123.489 68.139C122.193 66.2005 109.507 67.0365 106.66 67.2425C105.97 67.2909 105.182 67.5454 104.928 68.0179C104.588 68.6358 104.722 69.4233 105.146 69.9322L109.471 75.142H109.459Z" fill="#090A0A"/>
<path d="M156.274 43.0473L150.483 39.461L139.906 33.3183C144.219 28.2539 149.211 22.9593 154.627 19.4336L155.438 19.264C155.656 19.2156 156.032 19.8335 156.093 20.1485C157.292 26.3881 157.692 36.3109 156.274 43.0352V43.0473Z" fill="#090A0A"/>
<path d="M79.8359 35.5112L67.6353 42.7686C66.1814 35.8626 66.6054 27.0908 67.7201 20.1848L68.3259 19.2882C68.4955 19.0459 69.3678 19.2882 69.6223 19.4578C74.8563 23.0441 79.7995 28.1691 84.0037 33.0396L79.8359 35.5233V35.5112Z" fill="#090A0A"/>
<path d="M142.644 191.793C142.462 192.289 141.82 192.556 141.348 192.435C140.948 192.326 140.669 191.587 140.827 191.151C141.796 188.424 142.668 186.11 143.419 183.094L137.349 186.68C137.059 186.849 136.283 186.656 136.126 186.365C135.956 186.026 136.126 185.25 136.441 185.068C139.191 183.457 141.59 181.918 144.243 180.113L145.079 175.4L139.3 178.817C138.997 178.998 138.173 178.671 138.052 178.38C137.907 178.017 138.125 177.339 138.513 177.108L145.443 172.965C145.818 169.924 145.964 167.076 146.073 163.926C146.085 163.539 146.461 162.957 146.751 162.836C147.078 162.703 147.975 163.163 147.963 163.563L147.599 171.559L151.149 169.027C151.513 168.773 152.312 168.967 152.518 169.403C152.676 169.73 152.458 170.457 152.094 170.711L147.151 174.104L146.667 178.029C147.49 177.944 148.278 176.478 149.162 177.472C149.417 177.763 149.271 178.683 148.956 178.914L145.964 181.203C145.007 184.85 143.953 188.255 142.644 191.805V191.793Z" fill="#090A0A"/>
<path d="M63.0434 129.312C61.1776 132.777 59.7237 135.987 58.2819 139.622C58.1608 139.937 57.4823 140.192 57.1431 140.143C56.8038 140.095 56.3555 139.368 56.4888 139.016C58.1002 134.776 59.9176 130.996 62.1348 127.058C61.9651 126.343 61.6501 125.556 61.2382 124.732L58.6575 129.069C58.4879 129.36 57.6883 129.445 57.4217 129.324C55.9921 128.73 59.0452 125.362 60.2326 122.151C60.5355 121.315 60.693 120.915 61.1534 120.225C63.2736 117.014 63.7219 113.561 65.2485 113.864C65.5999 113.937 66.0118 114.773 65.8301 115.148L62.4619 122.26C62.6921 123.036 63.0556 124.005 63.419 124.865L65.1152 122.26C65.2606 122.03 66.0118 122.006 66.2541 122.066C66.5449 122.139 66.8114 122.951 66.6539 123.217L64.3277 127.119L66.7751 133.77C66.8963 134.097 66.7024 134.812 66.4237 134.97C66.036 135.188 65.2243 134.933 65.0789 134.57L63.0313 129.287L63.0434 129.312Z" fill="#090A0A"/>
<path d="M85.809 205.387C86.015 205.774 85.7726 206.441 85.3849 206.671C85.0336 206.877 84.3188 206.647 84.0764 206.174C81.8956 201.934 80.0904 197.79 78.7697 193.137L75.7893 191.417C75.5227 191.26 75.2562 190.52 75.341 190.218C75.4258 189.915 76.0679 189.563 76.3708 189.672L77.958 190.29C77.8732 188.437 75.5712 181.058 77.2189 180.561C77.5218 180.464 78.273 180.767 78.3093 181.119C78.7697 184.741 79.4119 188.158 80.3327 191.805C82.5377 192.944 84.8155 193.804 87.0812 194.616C87.4325 194.749 87.7112 195.415 87.6385 195.718C87.5537 196.106 86.7783 196.518 86.3906 196.372L81.2171 194.446C82.4408 198.493 83.9674 201.825 85.809 205.374V205.387Z" fill="#090A0A"/>
<path d="M182.953 203.169C182.953 203.714 182.493 204.235 182.178 204.284C181.741 204.344 181.051 203.933 181.063 203.387C181.257 196.566 180.239 190.048 178.289 183.53C178.131 183.009 178.47 182.318 178.955 182.173C179.306 182.064 179.924 182.451 180.082 182.948C182.129 189.515 183.062 196.142 182.953 203.169Z" fill="#090A0A"/>
<path d="M112.318 157.311C112.488 157.953 112.233 158.608 111.882 158.692C111.179 158.862 110.695 158.547 110.525 157.868C108.926 151.811 106.612 146.165 103.328 140.846C103.086 140.458 103.086 139.695 103.377 139.452C103.728 139.15 104.588 139.271 104.867 139.731C108.199 145.232 110.67 150.975 112.33 157.311H112.318Z" fill="#090A0A"/>
<path d="M188.199 185.747C188.381 186.304 187.957 186.971 187.618 187.031C187.303 187.092 186.551 186.825 186.442 186.486C184.77 180.961 182.202 176.091 178.713 171.523C178.519 171.268 178.713 170.432 178.955 170.239C179.234 170.021 179.973 170.069 180.263 170.445C183.85 175.036 186.406 180.04 188.199 185.735V185.747Z" fill="#090A0A"/>
<path d="M112.318 142.772C112.912 144.032 116.171 151.459 114.475 151.774C113.978 151.859 113.336 151.58 113.203 151.084C112.5 148.394 111.749 146.092 110.646 143.511C110.513 143.196 110.78 142.506 111.083 142.324C111.386 142.142 112.137 142.384 112.306 142.76L112.318 142.772Z" fill="#090A0A"/>
<path d="M135.048 75.1904C135.048 75.1904 167.481 64.3226 182.965 65.1949" stroke="#090A0A" stroke-width="3.63473" stroke-miterlimit="10" stroke-linecap="round"/>
<path d="M142.256 79.1644C142.256 79.1644 165.531 78.9826 181.015 79.855" stroke="#090A0A" stroke-width="3.63473" stroke-miterlimit="10" stroke-linecap="round"/>
<path d="M139.106 84.7013C139.106 84.7013 161.012 92.2616 176.496 93.1339" stroke="#090A0A" stroke-width="3.63473" stroke-miterlimit="10" stroke-linecap="round"/>
<path d="M90.8855 73.9788C90.8855 73.9788 58.4516 63.111 42.9677 63.9833" stroke="#090A0A" stroke-width="3.63473" stroke-miterlimit="10" stroke-linecap="round"/>
<path d="M83.6647 77.9527C83.6647 77.9527 60.3903 77.771 44.9064 78.6433" stroke="#090A0A" stroke-width="3.63473" stroke-miterlimit="10" stroke-linecap="round"/>
<path d="M86.8148 83.4897C86.8148 83.4897 64.9095 91.0499 49.4255 91.9223" stroke="#090A0A" stroke-width="3.63473" stroke-miterlimit="10" stroke-linecap="round"/>
<path d="M138.694 118.335C138.694 118.335 156.008 109.139 162.393 99.955" stroke="#090A0A" stroke-width="3.63473" stroke-miterlimit="10" stroke-linecap="round"/>
<path d="M86.6937 117.487C86.6937 117.487 69.9012 109.539 62.8862 100.827" stroke="#090A0A" stroke-width="3.63473" stroke-miterlimit="10" stroke-linecap="round"/>
<path d="M96.277 89.1356C96.277 89.1356 110.683 92.2857 114.208 83.4897" stroke="#090A0A" stroke-width="3.63473" stroke-miterlimit="10" stroke-linecap="round"/>
<path d="M132.661 89.1356C132.661 89.1356 118.255 92.2857 114.73 83.4897" stroke="#090A0A" stroke-width="3.63473" stroke-miterlimit="10" stroke-linecap="round"/>
<path d="M166.5 149.012C166.5 149.012 159.146 198.105 143.08 221.125C142.487 221.973 142.814 223.136 143.807 223.451C148.775 224.99 160.248 229.497 154.324 243.406" stroke="#090A0A" stroke-width="3.63473" stroke-miterlimit="10" stroke-linecap="round"/>
<path d="M148.811 233.471L146.957 243.406" stroke="#090A0A" stroke-width="3.63473" stroke-miterlimit="10" stroke-linecap="round"/>
<path d="M140.972 233.471L139.106 243.406" stroke="#090A0A" stroke-width="3.63473" stroke-miterlimit="10" stroke-linecap="round"/>
<path d="M131.122 233.471L129.256 243.406" stroke="#090A0A" stroke-width="3.63473" stroke-miterlimit="10" stroke-linecap="round"/>
<path d="M113.409 168.639C113.409 168.639 104.007 238.886 117.08 243.406" stroke="#090A0A" stroke-width="3.63473" stroke-miterlimit="10" stroke-linecap="round"/>
<path d="M59.9661 148.358C59.9661 148.358 67.3204 197.451 83.3859 220.471C83.9796 221.319 83.6524 222.482 82.6589 222.797C77.6915 224.336 66.2178 228.843 72.1425 242.751" stroke="#090A0A" stroke-width="3.63473" stroke-miterlimit="10" stroke-linecap="round"/>
<path d="M82.3439 233.471L84.1976 243.406" stroke="#090A0A" stroke-width="3.63473" stroke-miterlimit="10" stroke-linecap="round"/>
<path d="M90.2313 233.471L92.085 243.406" stroke="#090A0A" stroke-width="3.63473" stroke-miterlimit="10" stroke-linecap="round"/>
<path d="M99.0516 233.471L100.796 242.751" stroke="#090A0A" stroke-width="3.63473" stroke-miterlimit="10" stroke-linecap="round"/>
<path d="M43.2585 244.593C50.5279 240.401 57.337 234.525 62.2196 227.704C68.3866 219.077 71.3792 208.137 66.3148 198.517C64.1218 194.349 58.9968 190.678 54.3928 193.719C50.0312 196.59 49.1952 202.079 47.3294 206.755C45.3666 211.687 41.7076 216.254 37.3581 219.525C33.0085 222.797 27.5201 224.808 22.0922 223.33" stroke="#090A0A" stroke-width="3.63473" stroke-miterlimit="10" stroke-linecap="round"/>
<path d="M89.8681 54.2664C89.8681 54.2664 93.1151 50.5832 96.2773 53.5031" stroke="#090A0A" stroke-width="3.63473" stroke-miterlimit="10" stroke-linecap="round"/>
<path d="M129.45 54.2664C129.45 54.2664 132.697 50.5832 135.859 53.5031" stroke="#090A0A" stroke-width="3.63473" stroke-miterlimit="10" stroke-linecap="round"/>
</g>
<path d="M194.405 102.289C211.518 88.5028 248.578 84.8331 263.34 107.874C260.826 107.264 256.176 106.04 254.734 105.299C254.127 104.981 254.275 103.414 253.851 103.921C252.168 105.908 254.329 106.667 257.759 108.142C262.344 110.113 269.082 112.575 270.736 113.554C277.035 117.277 279.296 125.878 284.629 130.623L295.724 140.504C301.552 145.697 305.7 152.112 307.302 160.046C300.286 159.342 287.814 151.17 285.666 148.648C284.677 147.484 284.76 152.387 285.803 153.146C293.206 158.595 299.091 159.13 307.637 162.523C311.988 171.122 305.773 192.193 300.395 200.684L288.855 183.4C288.612 183.394 289.255 182.75 288.632 183.186C287.848 183.732 289.349 184.14 289.979 185.076L300.569 198.034C300.43 199.721 293.322 210.216 291.79 210.844L286.409 200.853C285.644 200.061 286.243 201.218 285.95 202.468L297.291 218.747L309.238 234.688C313.297 240.101 316.513 246.101 318.881 252.445C321.722 260.041 327.579 271.976 327.579 271.976C332.617 276.682 335.814 283.06 336.459 289.913C337.37 299.612 336.79 311.273 332.973 316.012L326.09 306.088C325.68 306.289 326.114 306.718 325.465 307.132C324.689 307.629 327.961 311.012 328.518 311.942L332.205 317.735C334.278 321.174 335.499 333.499 333.319 337.092C330.006 342.546 323.909 345.138 317.64 345.629L286.919 347.016C287.757 332.383 285.226 332.175 273.874 324.816L284.235 297.73C284.603 296.815 286.475 294.436 285.591 294.163C284.707 293.89 283.293 295.42 282.833 296.549L278.524 311.411L272.668 325.407C276.576 326.469 277.614 329.075 280.907 330.986C286.641 334.315 288.369 343.406 285.663 347.756C285.36 348.241 279.22 348.661 279.25 348.112L280.045 341.806C280.08 341.317 280.103 340.817 280.126 340.329C280.194 338.83 281.6 340.059 280.126 340.329C277.657 340.773 279.685 345.527 277.859 348.036C276.849 349.438 272.872 349.717 270.512 349.205L270.866 340.636L270.491 340.968C268.045 341.398 270.281 349.199 266.769 349.673C265.542 349.84 262.495 349.55 262.172 348.98L262.506 341.117C261.842 340.693 261.575 340.058 260.791 340.288C260.006 340.518 260.614 343.388 260.499 344.259L259.657 350.581C256.365 351.064 246.982 352.315 243.33 351.586C234.89 349.897 234.419 327.041 234.202 307.494C234.021 292.088 236.474 278.061 235.055 276.99C234.423 276.516 232.82 277.161 232.039 277.913C232.49 299.241 228.971 331.588 239.068 351.304L227.148 352.907L225.683 346.931C225.173 345.816 226.028 345.082 225.32 345.039C224.527 344.99 223.234 344.457 223.276 345.159C223.311 345.934 223.319 347.318 223.493 347.998L226.474 351.877C226.685 352.723 217.671 353.546 216.975 353.186L213.994 344.069C213.459 342.956 212.069 344.314 212.467 345.547L215.044 352.884C213.895 353.275 206.769 354.318 206.337 353.585C205.793 352.667 206.351 351.069 205.785 349.703L204.677 346.021C204.321 345.173 202.96 346.285 203.126 347.184L206.338 353.597L191.517 355.398C187.524 350.053 188.025 342.93 192.877 338.198C195.602 335.535 198.004 331.354 201.77 329.596L187.658 301.864C186.961 301.479 185.37 302.451 185.824 303.304L197.341 321.404L201.179 327.903L193.336 335.307C187.704 340.634 186.705 348.074 190.33 355.44L149.696 358.459C140.586 359.131 133.691 351.273 133.17 342.224C132.759 334.941 135.048 321.959 137.329 315.551C137.679 314.564 139.8 313.381 140.252 312.618L150.047 298.637C150.51 297.848 150.676 295.575 150.668 294.835C150.646 293.901 148.612 296.547 148.139 297.361L140.987 308.868C124.759 297.811 131.227 268.591 139.567 256.411L150.438 243.466C150.897 242.799 154.37 241.014 154.286 240.231C154.201 239.448 152.619 238.937 152.171 239.591L139.555 256.412C121.763 242.217 139.824 219.209 149.186 204.338C133.195 195.899 127.236 171.505 132.201 155.062L145.067 153.12C146.191 152.73 134.569 154.08 133.796 154.139L133.714 151.958C135.839 146.534 138.8 142.978 143.029 139.97L152.801 133.002L180.732 111.475L194.371 102.316L194.405 102.289ZM257.924 178.861C258.735 177.863 256 175.302 255.221 175.92C252.38 178.179 248.319 180.701 244.828 180.165C241.336 179.63 237.466 177.811 235.208 174.813L237.428 167.923C241.89 165.736 253.841 160.254 252.504 154.839C252.259 153.862 250.577 152.362 249.447 152.035L230.358 146.64C229.427 146.383 227.055 146.978 226.466 147.545C222.811 151.069 229.924 162.421 232.369 166.123C233.399 167.672 231.777 171.891 230.307 172.842C224.389 176.66 216.051 172.497 212.825 164.627C212.437 163.672 209.221 164.051 209.111 164.995C209.013 165.781 209.449 167.351 209.883 168.266C214.127 177.213 222.821 180.157 232.293 177.684C238.702 186.344 251.621 186.536 257.935 178.848L257.924 178.861Z" fill="#FFB323"/>
<path d="M257.924 178.861C251.61 186.549 238.69 186.357 232.281 177.697C222.822 180.17 214.128 177.225 209.872 168.279C209.438 167.364 209.002 165.794 209.1 165.008C209.211 164.076 212.426 163.697 212.814 164.64C216.04 172.51 224.379 176.685 230.295 172.855C231.766 171.904 233.388 167.685 232.358 166.136C229.912 162.434 222.799 151.082 226.455 147.558C227.044 146.991 229.415 146.384 230.347 146.653L249.436 152.048C250.565 152.363 252.248 153.875 252.493 154.852C253.842 160.266 241.879 165.749 237.417 167.936L235.197 174.826C237.454 177.812 241.497 179.666 244.816 180.178C248.308 180.714 252.368 178.192 255.209 175.933C255.976 175.316 258.724 177.877 257.913 178.874L257.924 178.861Z" fill="#090A0A"/>
<path d="M250.794 103.34C250.794 103.34 272.463 114.37 278.473 115.102" stroke="#090A0A" stroke-width="3.63473" stroke-miterlimit="10" stroke-linecap="round"/>
<path d="M314.617 163.217C314.617 163.217 295.159 161.095 280.879 146.596" stroke="#090A0A" stroke-width="3.63473" stroke-miterlimit="10" stroke-linecap="round"/>
<path d="M185.957 157.59C185.957 157.59 210.985 151.036 220.135 123.52" stroke="#090A0A" stroke-width="3.63473" stroke-miterlimit="10" stroke-linecap="round"/>
<path d="M202.381 103.308C202.381 103.308 190.492 107.85 178.776 105.111" stroke="#090A0A" stroke-width="3.63473" stroke-miterlimit="10" stroke-linecap="round"/>
<path d="M164.094 135.602C164.094 135.602 164.958 138.647 177.474 133.085C186.323 129.153 193.473 117.926 192.197 119.834L181.429 139.843" stroke="#090A0A" stroke-width="3.63473" stroke-miterlimit="10" stroke-linecap="round"/>
<path d="M124.681 154.604C124.681 154.604 142.286 155.045 153.924 147.218" stroke="#090A0A" stroke-width="3.63473" stroke-miterlimit="10" stroke-linecap="round"/>
<path d="M284.651 177.84C284.651 177.84 299.387 201.332 305.378 201.336" stroke="#090A0A" stroke-width="3.63473" stroke-miterlimit="10" stroke-linecap="round"/>
<path d="M191.781 183.258C191.781 183.258 187.267 193.992 171.457 194.131" stroke="#090A0A" stroke-width="3.63473" stroke-miterlimit="10" stroke-linecap="round"/>
<path d="M143.241 181.073C143.241 181.073 155.36 185.263 163.431 167.331" stroke="#090A0A" stroke-width="3.63473" stroke-miterlimit="10" stroke-linecap="round"/>
<path d="M282.444 197.304L321.319 250.946" stroke="#090A0A" stroke-width="3.63473" stroke-miterlimit="10" stroke-linecap="round"/>
<path d="M253.473 205.848L267.361 233.197" stroke="#090A0A" stroke-width="3.63473" stroke-miterlimit="10" stroke-linecap="round"/>
<path d="M292.797 259.334L302.966 288.267" stroke="#090A0A" stroke-width="3.63473" stroke-miterlimit="10" stroke-linecap="round"/>
<path d="M229.273 221.817L229.664 248.41" stroke="#090A0A" stroke-width="3.63473" stroke-miterlimit="10" stroke-linecap="round"/>
<path d="M212.369 208.442C207.864 219.454 201.59 229.74 193.849 238.788" stroke="#090A0A" stroke-width="3.63473" stroke-miterlimit="10" stroke-linecap="round"/>
<path d="M152.085 224.943C152.085 224.943 160.073 205.766 166.63 209.202C180.175 216.308 157.846 252.633 170.284 257.029" stroke="#090A0A" stroke-width="3.63473" stroke-miterlimit="10" stroke-linecap="round"/>
<path d="M155.754 237.033L133.42 264.062" stroke="#090A0A" stroke-width="3.63473" stroke-miterlimit="10" stroke-linecap="round"/>
<path d="M165.204 268.474L159.092 280.716" stroke="#090A0A" stroke-width="3.63473" stroke-miterlimit="10" stroke-linecap="round"/>
<path d="M163.844 319.224L161.237 332.656" stroke="#090A0A" stroke-width="3.63473" stroke-miterlimit="10" stroke-linecap="round"/>
<path d="M196.131 268.19C196.131 268.19 200.177 299.036 209.24 303.629" stroke="#090A0A" stroke-width="3.63473" stroke-miterlimit="10" stroke-linecap="round"/>
<path d="M316.876 262.781L337.272 280.361" stroke="#090A0A" stroke-width="3.63473" stroke-miterlimit="10" stroke-linecap="round"/>
<path d="M321.555 300.966L339.48 329.148" stroke="#090A0A" stroke-width="3.63473" stroke-miterlimit="10" stroke-linecap="round"/>
<path d="M264.821 266.757L261.554 281.406" stroke="#090A0A" stroke-width="3.63473" stroke-miterlimit="10" stroke-linecap="round"/>
<path d="M151.668 291.38C151.668 291.38 141.837 315.705 127.919 321.373" stroke="#090A0A" stroke-width="3.63473" stroke-miterlimit="10" stroke-linecap="round"/>
<path d="M284.931 291.565C282.234 303.351 278.473 315.352 273.343 324.067C272.815 324.958 273.23 326.093 274.245 326.331C279.315 327.487 291.589 335.298 286.728 349.607" stroke="#090A0A" stroke-width="3.63473" stroke-miterlimit="10" stroke-linecap="round"/>
<path d="M279.031 338.882L277.928 348.93" stroke="#090A0A" stroke-width="3.63473" stroke-miterlimit="10" stroke-linecap="round"/>
<path d="M271.203 339.48L270.112 349.527" stroke="#090A0A" stroke-width="3.63473" stroke-miterlimit="10" stroke-linecap="round"/>
<path d="M261.382 340.23L260.29 350.278" stroke="#090A0A" stroke-width="3.63473" stroke-miterlimit="10" stroke-linecap="round"/>
<path d="M233.949 277.306C233.949 277.306 229.926 348.065 243.305 351.575" stroke="#090A0A" stroke-width="3.63473" stroke-miterlimit="10" stroke-linecap="round"/>
<path d="M184.469 299.24L200.85 325.024C202.299 327.295 201.568 330.292 199.282 331.706C192.877 335.658 182.775 344.668 193.069 358.378" stroke="#090A0A" stroke-width="3.63473" stroke-miterlimit="10" stroke-linecap="round"/>
<path d="M222.979 341.597L227.218 354.141" stroke="#090A0A" stroke-width="3.63473" stroke-miterlimit="10" stroke-linecap="round"/>
<path d="M212.215 342.419L216.443 354.964" stroke="#090A0A" stroke-width="3.63473" stroke-miterlimit="10" stroke-linecap="round"/>
<path d="M202.804 343.138L207.031 355.683" stroke="#090A0A" stroke-width="3.63473" stroke-miterlimit="10" stroke-linecap="round"/>
<path d="M254.018 140.315C254.683 138.927 254.524 137.467 253.661 137.053C252.798 136.639 251.559 137.428 250.893 138.816C250.228 140.203 250.387 141.664 251.25 142.078C252.113 142.492 253.352 141.702 254.018 140.315Z" fill="#090A0A"/>
<path d="M233.786 136.177C233.95 134.647 233.312 133.324 232.36 133.222C231.409 133.12 230.505 134.278 230.341 135.808C230.177 137.339 230.816 138.662 231.767 138.764C232.718 138.865 233.622 137.708 233.786 136.177Z" fill="#090A0A"/>
<defs>
<clipPath id="clip0_215_796">
<rect width="223" height="259" fill="white"/>
</clipPath>
</defs>
</svg>
